<svg width="550" height="317" viewBox="0 0 550 317" fill="none" xmlns="http://www.w3.org/2000/svg">
<path d="M465.11 22.6882L434.112 85.4469L443.366 85.8002L417.098 135.664H430.892L409.376 179.971H529.672L503.184 135.664L515.878 135.112L490.49 85.2703L499.87 84.7183L465.11 22.6882Z" fill="#E2E2E2"/>
<path d="M470.353 95.5081C470.529 95.5081 470.28 133.405 469.803 180.148C469.326 226.891 468.564 270.043 468.556 269.866C468.505 259.872 468.681 226.891 469.165 180.148C469.649 133.405 470.17 95.5081 470.353 95.5081Z" fill="#E0E0E0"/>
<path d="M485.093 111.619C485.232 111.729 482.159 115.991 478.192 121.135C474.225 126.28 470.917 130.358 470.8 130.247C470.683 130.137 473.733 125.883 477.701 120.738C481.668 115.593 484.953 111.509 485.093 111.619Z" fill="#E0E0E0"/>
<path d="M470.067 128.915C469.957 129.055 466.899 126.854 463.247 123.991C459.595 121.128 456.713 118.699 456.816 118.552C456.918 118.405 459.984 120.62 463.643 123.483C467.302 126.346 470.17 128.775 470.067 128.915Z" fill="#E0E0E0"/>
<path d="M469.231 159.702C468.415 159.182 467.651 158.583 466.951 157.914C465.587 156.758 463.709 155.168 461.605 153.439C459.5 151.709 457.557 150.193 456.156 149.089C455.362 148.535 454.625 147.904 453.956 147.205C454.839 147.607 455.669 148.116 456.427 148.721C457.894 149.737 459.889 151.209 462.008 152.938C464.127 154.668 465.968 156.331 467.259 157.575C468.001 158.199 468.664 158.914 469.231 159.702Z" fill="#E0E0E0"/>
<path d="M485.115 140.669C485.247 140.787 481.866 145.247 477.547 150.634C473.228 156.022 469.62 160.298 469.48 160.202C469.341 160.107 472.729 155.632 477.048 150.244C481.368 144.857 484.976 140.559 485.115 140.669Z" fill="#E0E0E0"/>
<path d="M113.014 22.6882L84.7736 79.868L93.2069 80.1845L69.2783 125.625H81.8403L62.2383 165.987H171.835L147.701 125.625L159.266 125.117L136.144 79.7061L144.687 79.1983L113.014 22.6882Z" fill="#E2E2E2"/>
<path d="M117.789 89.0165C117.95 89.0165 117.73 123.535 117.297 166.112C116.865 208.69 116.373 256.964 116.212 256.957C116.051 256.95 116.271 208.697 116.711 166.105C117.151 123.513 117.627 89.0165 117.789 89.0165Z" fill="#E0E0E0"/>
<path d="M131.223 103.714C131.347 103.81 128.531 107.696 124.931 112.377C121.33 117.058 118.331 120.79 118.184 120.687C118.037 120.584 120.868 116.712 124.469 112.024C128.069 107.336 131.091 103.604 131.223 103.714Z" fill="#E0E0E0"/>
<path d="M117.524 119.472C117.422 119.597 114.642 117.588 111.313 114.983C107.984 112.377 105.358 110.162 105.446 110.029C105.534 109.897 108.328 111.913 111.665 114.519C115.002 117.124 117.62 119.347 117.524 119.472Z" fill="#E0E0E0"/>
<path d="M116.777 147.521C116.028 147.051 115.33 146.503 114.694 145.887C113.455 144.842 111.761 143.385 109.817 141.817C107.874 140.249 106.151 138.873 104.86 137.85C104.134 137.348 103.461 136.773 102.851 136.135C103.657 136.498 104.416 136.961 105.109 137.512C106.451 138.439 108.263 139.786 110.191 141.361C112.12 142.936 113.792 144.445 114.973 145.578C115.649 146.152 116.254 146.804 116.777 147.521Z" fill="#E0E0E0"/>
<path d="M131.267 130.181C131.392 130.284 128.334 134.347 124.381 139.256C120.428 144.165 117.158 148.088 117.048 147.963C116.938 147.838 119.981 143.804 123.934 138.888C127.886 133.971 131.113 130.1 131.267 130.181Z" fill="#E0E0E0"/>
<path d="M64.387 99.1953L42.6363 143.238L49.1337 143.488L30.6977 178.477H40.3777L25.2783 209.573H104.845L91.1097 178.477L100.012 178.087L82.1997 143.112L88.785 142.722L64.387 99.1953Z" fill="#EBEBEB"/>
<path d="M68.0684 150.281C68.1931 150.281 68.0171 176.873 67.6871 209.662C67.3571 242.45 66.9538 269.049 66.8511 269.049C66.7484 269.049 66.8951 242.465 67.2324 209.662C67.5697 176.858 67.9437 150.281 68.0684 150.281Z" fill="#E0E0E0"/>
<path d="M78.4159 161.608C76.919 163.915 75.301 166.141 73.5686 168.276C71.9518 170.503 70.2161 172.641 68.3692 174.679C68.2739 174.599 70.4372 171.61 73.2092 168.004C75.9812 164.398 78.3132 161.527 78.4159 161.608Z" fill="#E0E0E0"/>
<path d="M67.8631 173.745C67.7825 173.841 65.6631 172.273 63.0745 170.286C61.4791 169.129 59.9716 167.854 58.5645 166.473C58.6451 166.37 60.7645 167.945 63.3531 169.925C65.9418 171.905 67.9365 173.642 67.8631 173.745Z" fill="#E0E0E0"/>
<path d="M67.2838 195.346C66.7101 194.982 66.1745 194.56 65.6852 194.088C64.7245 193.278 63.4045 192.159 61.9305 190.952C60.4565 189.745 59.0925 188.671 58.1098 187.898C57.5505 187.51 57.032 187.067 56.5625 186.573C57.1827 186.857 57.7663 187.215 58.3005 187.64C59.3345 188.376 60.7278 189.385 62.2165 190.584C63.7052 191.784 64.9885 192.962 65.8832 193.838C66.411 194.28 66.8815 194.787 67.2838 195.346Z" fill="#E0E0E0"/>
<path d="M78.4233 181.988C78.526 182.069 76.15 185.197 73.1213 188.98C70.0926 192.763 67.5553 195.766 67.46 195.685C69.1126 193.269 70.8846 190.938 72.7693 188.7C75.798 184.917 78.328 181.914 78.4233 181.988Z" fill="#E0E0E0"/>
<path d="M441.973 270.028C413.314 291.578 374.858 294.64 339.182 291.63C303.505 288.62 268.048 280.369 232.291 282.504C212.044 283.711 192.06 288.237 171.784 288.598C151.507 288.958 129.984 284.483 115.317 270.426L441.973 270.028Z" fill="#E2E2E2"/>
<path d="M172.224 63.86H269.024C269.024 63.86 260.458 48.22 235.532 50.4942C211.728 52.7022 210.518 42.803 198.418 41.5886C186.318 40.3742 176.264 49.6846 172.224 63.86Z" fill="#EBEBEB"/>
<path d="M258.456 90.6062H311.256C311.256 90.6062 306.585 82.0834 292.996 83.3198C280.016 84.5048 279.356 79.1246 272.756 78.4622C266.156 77.7998 260.656 82.8782 258.456 90.6062Z" fill="#E2E2E2"/>
<path d="M313.412 40.9925H366.212C366.212 40.9925 361.533 32.4622 347.952 33.684C334.972 34.8689 334.312 29.4888 327.712 28.8264C321.112 28.164 315.612 33.2645 313.412 40.9925Z" fill="#E4E4E4"/>
<path d="M526.115 269.579C526.115 269.69 413.644 269.771 274.941 269.771C136.238 269.771 23.7451 269.69 23.7451 269.579C23.7451 269.469 136.187 269.388 274.941 269.388C413.695 269.388 526.115 269.476 526.115 269.579Z" fill="#263238"/>
<path d="M493.416 197.017C496.89 200.771 498.89 205.661 499.046 210.782C499.203 215.903 497.505 220.907 494.267 224.867C491.319 228.413 487.608 231.242 483.413 233.14L447.377 249.435L421.923 253.387L88.7994 251.268L67.9214 247.168C63.045 246.21 58.6587 243.564 55.5278 239.691C52.397 235.818 50.7204 230.965 50.7907 225.979L51.0034 211.421C51.0218 210.326 51.3872 209.266 52.0465 208.394C52.7058 207.522 53.6247 206.883 54.67 206.57L56.1367 206.114C56.1367 206.114 57.3687 191.843 65.9487 188.612C97.218 175.092 117.913 170.749 170.251 168.556L214.449 142.06C214.449 142.06 232.291 130.615 248.915 129.114C265.54 127.612 303.182 127.598 320.423 128.591C340.67 129.761 366.359 139.006 380.688 146.137C391.908 151.724 418.917 165.524 418.917 165.524L434.192 168.092C436.495 168.203 478.683 170.786 483.531 171.529C485.294 171.817 486.944 172.588 488.299 173.756C489.654 174.925 490.661 176.447 491.209 178.153C492.419 182.172 493.409 196.929 493.409 196.929" fill="#FDAF36"/>
<path d="M364.466 146.888C357.265 143.274 337.949 138.292 327.147 136.26C316.345 134.229 294.389 133.949 285.618 134.17C276.848 134.391 252.472 134.818 239.624 138.476C233.024 140.36 222.398 145.88 216.157 150.502C213.957 152.106 204.541 159.533 202.436 161.218L186.083 176.542L387.016 170.175C387.016 170.175 388.175 163.146 384.56 159.098C380.944 155.05 364.466 146.888 364.466 146.888Z" fill="#263238"/>
<path d="M66.3886 205.253L56.2246 205.106C56.6206 202.353 57.9626 195.037 62.3113 190.938L75.7679 191.136C76.3266 191.144 76.8733 191.3 77.3522 191.589C77.8311 191.878 78.2252 192.289 78.4942 192.781C78.7633 193.272 78.8977 193.826 78.8839 194.387C78.87 194.948 78.7083 195.495 78.4153 195.972L75.9659 199.968C74.9624 201.606 73.5521 202.955 71.8732 203.881C70.1943 204.808 68.3043 205.28 66.3886 205.253Z" fill="#E4E4E4"/>
<path d="M67.6208 204.635C68.6768 200.145 70.0115 194.242 73.7881 191.107H75.7681C76.3268 191.115 76.8735 191.271 77.3524 191.56C77.8313 191.849 78.2253 192.26 78.4944 192.751C78.7635 193.243 78.8979 193.797 78.8841 194.358C78.8702 194.918 78.7085 195.465 78.4155 195.943L75.9661 199.939C75.0602 201.422 73.8182 202.668 72.3412 203.578C70.8642 204.487 69.194 205.033 67.4668 205.172L67.6208 204.635Z" fill="#E0E0E0"/>
<g opacity="0.7">
<path d="M166.247 251.886C167.324 246.638 167.557 241.251 166.936 235.929C164.311 213.283 149.534 196.988 127.211 196.664C107.785 196.384 91.7401 208.565 88.4621 231.123C87.5029 237.857 87.7313 244.708 89.1367 251.363L166.247 251.886Z" fill="black"/>
</g>
<g opacity="0.7">
<path d="M447.333 249.531C447.333 248.699 447.238 247.845 447.223 246.962C446.827 218.383 427.724 198.585 405.005 198.254C395.023 198.12 385.396 201.966 378.236 208.948C371.076 215.93 366.968 225.477 366.813 235.495C366.718 241.854 366.417 247.838 367.165 253.115L421.879 253.483L447.333 249.531Z" fill="black"/>
</g>
<path d="M371.683 235.561C371.589 242.072 373.421 248.464 376.947 253.93C380.473 259.395 385.535 263.689 391.493 266.267C397.45 268.845 404.035 269.592 410.416 268.414C416.797 267.236 422.686 264.186 427.339 259.649C431.992 255.111 435.2 249.291 436.557 242.924C437.915 236.557 437.36 229.929 434.964 223.878C432.568 217.827 428.438 212.625 423.096 208.93C417.755 205.235 411.441 203.212 404.954 203.119C396.255 202.993 387.863 206.34 381.624 212.424C375.384 218.508 371.808 226.831 371.683 235.561Z" fill="#263238"/>
<path d="M371.683 235.48V235.561C371.62 239.885 372.407 244.178 373.999 248.196C375.59 252.214 377.954 255.878 380.956 258.979C383.958 262.08 387.539 264.558 391.495 266.27C395.451 267.982 399.704 268.895 404.012 268.957C408.319 269.02 412.597 268.23 416.6 266.633C420.604 265.036 424.255 262.664 427.345 259.651C430.435 256.638 432.903 253.044 434.609 249.073C436.315 245.103 437.224 240.834 437.287 236.511C437.287 236.511 437.287 236.459 437.287 236.43L371.683 235.48Z" fill="#263238"/>
<path d="M381.451 235.709C381.392 240.279 382.684 244.764 385.164 248.598C387.645 252.431 391.201 255.441 395.385 257.246C399.569 259.051 404.193 259.571 408.671 258.74C413.149 257.909 417.282 255.764 420.546 252.577C423.81 249.389 426.059 245.302 427.01 240.832C427.96 236.362 427.569 231.709 425.885 227.462C424.202 223.215 421.301 219.564 417.551 216.971C413.801 214.378 409.368 212.958 404.815 212.893C401.787 212.849 398.781 213.404 395.968 214.528C393.155 215.651 390.59 217.32 388.42 219.439C386.25 221.558 384.517 224.086 383.321 226.878C382.126 229.669 381.49 232.67 381.451 235.709Z" fill="#E4E4E4"/>
<path d="M404.8 212.922C401.773 212.879 398.767 213.436 395.954 214.559C393.141 215.683 390.577 217.352 388.407 219.471C386.237 221.59 384.505 224.117 383.309 226.908C382.113 229.699 381.476 232.7 381.436 235.738L427.497 236.4C427.544 233.363 426.995 230.345 425.879 227.521C424.764 224.696 423.105 222.12 420.997 219.94C418.889 217.759 416.374 216.017 413.595 214.813C410.815 213.609 407.827 212.966 404.8 212.922Z" fill="#E0E0E0"/>
<path d="M390.456 235.834C390.416 238.618 391.199 241.352 392.707 243.69C394.215 246.028 396.38 247.864 398.928 248.967C401.476 250.07 404.292 250.39 407.021 249.886C409.75 249.382 412.269 248.077 414.259 246.136C416.249 244.196 417.621 241.706 418.202 238.983C418.782 236.26 418.545 233.425 417.519 230.837C416.494 228.249 414.728 226.024 412.443 224.444C410.158 222.864 407.457 222 404.683 221.96C400.963 221.907 397.375 223.339 394.707 225.94C392.039 228.542 390.51 232.101 390.456 235.834Z" fill="#263238"/>
<path d="M129.32 269.796C147.422 268.98 161.438 253.591 160.625 235.424C159.813 217.256 144.48 203.189 126.378 204.005C108.276 204.82 94.2602 220.209 95.0727 238.377C95.8852 256.544 111.218 270.611 129.32 269.796Z" fill="#263238"/>
<path d="M95.0767 236.327C95.0767 236.327 95.0767 236.386 95.0767 236.415C94.9512 245.147 98.2868 253.57 104.35 259.833C110.413 266.096 118.706 269.685 127.406 269.811C136.105 269.937 144.498 266.589 150.739 260.504C156.979 254.42 160.555 246.096 160.681 237.365V237.276L95.0767 236.327Z" fill="#263238"/>
<path d="M104.867 236.555C104.8 241.127 106.087 245.616 108.563 249.455C111.039 253.293 114.594 256.309 118.777 258.119C122.961 259.93 127.586 260.455 132.067 259.627C136.547 258.8 140.683 256.657 143.951 253.47C147.218 250.284 149.471 246.196 150.423 241.724C151.376 237.253 150.986 232.598 149.302 228.349C147.619 224.1 144.717 220.447 140.965 217.853C137.213 215.259 132.779 213.84 128.223 213.776C122.117 213.689 116.226 216.04 111.846 220.312C107.466 224.584 104.956 230.426 104.867 236.555Z" fill="#E4E4E4"/>
<path d="M128.201 213.776C122.098 213.695 116.213 216.049 111.838 220.32C107.463 224.591 104.956 230.43 104.867 236.555L150.927 237.225C150.971 234.187 150.418 231.17 149.299 228.347C148.18 225.524 146.518 222.95 144.407 220.773C142.296 218.595 139.779 216.856 136.998 215.655C134.217 214.455 131.228 213.816 128.201 213.776Z" fill="#E0E0E0"/>
<path d="M113.843 236.688C113.798 239.473 114.577 242.209 116.082 244.549C117.587 246.889 119.75 248.729 122.297 249.836C124.844 250.942 127.661 251.265 130.391 250.764C133.122 250.264 135.642 248.961 137.635 247.022C139.628 245.083 141.002 242.595 141.585 239.871C142.168 237.148 141.933 234.312 140.91 231.723C139.887 229.134 138.121 226.907 135.837 225.325C133.552 223.743 130.852 222.877 128.077 222.836C124.36 222.781 120.773 224.209 118.104 226.806C115.435 229.403 113.902 232.957 113.843 236.688Z" fill="#263238"/>
<g opacity="0.4">
<path d="M64.4086 229.342C64.3573 233.022 62.4946 235.966 60.258 235.966C58.0213 235.966 56.2393 232.912 56.2906 229.224C56.342 225.537 58.2046 222.6 60.4486 222.6C62.6926 222.6 64.46 225.655 64.4086 229.342Z" fill="black"/>
</g>
<path d="M493.416 197.017C493.208 197.056 492.997 197.073 492.785 197.069L490.967 197.135C489.39 197.172 487.109 197.223 484.301 197.341C481.492 197.459 478.133 197.606 474.423 197.908C470.404 198.208 466.411 198.799 462.477 199.674C460.457 200.151 458.491 200.834 456.61 201.713C454.88 202.581 453.258 203.651 451.777 204.9C448.844 207.189 446.644 209.728 444.613 211.722C443.068 213.342 441.346 214.781 439.479 216.013C438.964 216.339 438.428 216.629 437.873 216.882C437.687 216.985 437.491 217.066 437.287 217.125C437.287 217.08 438.071 216.727 439.377 215.859C441.194 214.581 442.873 213.116 444.385 211.487C446.358 209.478 448.558 206.894 451.513 204.561C453.013 203.281 454.66 202.186 456.419 201.301C458.328 200.399 460.327 199.701 462.381 199.218C466.341 198.336 470.361 197.753 474.408 197.473C478.133 197.201 481.492 197.061 484.308 197.002C487.124 196.944 489.441 196.936 490.989 196.951H492.807C493.012 196.955 493.215 196.978 493.416 197.017Z" fill="#263238"/>
<g opacity="0.5">
<path d="M446.307 250.12C446.434 250.027 446.566 249.941 446.703 249.862C447.087 249.608 447.456 249.333 447.81 249.038C449.142 247.869 450.179 246.401 450.839 244.754C451.854 242.131 452.219 239.3 451.902 236.504C451.521 232.798 450.784 229.138 449.702 225.574C448.435 221.246 446.663 217.083 444.422 213.172C441.839 208.687 438.542 204.657 434.661 201.242C430.388 197.452 425.361 194.617 419.914 192.925C414.037 191.204 407.876 190.676 401.793 191.372C395.704 192.021 389.745 193.576 384.113 195.987C379.051 197.989 374.471 201.049 370.678 204.963C366.885 208.878 363.965 213.558 362.113 218.692C360.521 222.912 359.375 227.289 358.695 231.749C358.373 233.795 358.131 235.753 357.962 237.637C357.765 239.379 357.692 241.132 357.742 242.885C357.845 246.153 358.908 248.949 360.573 250.546C361.787 251.849 363.431 252.665 365.2 252.843C365.816 252.859 366.431 252.802 367.033 252.673L366.579 252.806C366.124 252.906 365.658 252.951 365.193 252.938C363.389 252.793 361.701 251.989 360.448 250.679C358.725 249.06 357.603 246.204 357.515 242.899C357.451 241.133 357.512 239.365 357.698 237.608C357.852 235.745 358.087 233.78 358.395 231.72C359.058 227.23 360.194 222.824 361.783 218.575C362.684 216.212 363.773 213.925 365.039 211.737C366.401 209.422 368.004 207.259 369.82 205.282C373.801 201.092 378.619 197.794 383.959 195.604C389.63 193.164 395.635 191.594 401.771 190.945C407.926 190.231 414.161 190.767 420.105 192.52C425.613 194.236 430.693 197.112 435.006 200.955C438.913 204.407 442.227 208.48 444.818 213.01C448.883 220.244 451.396 228.252 452.195 236.518C452.472 239.342 452.062 242.191 451 244.82C450.313 246.483 449.236 247.955 447.861 249.111C447.389 249.513 446.866 249.852 446.307 250.12Z" fill="white"/>
</g>
<path d="M89.151 231.116C88.7725 230.718 88.4175 230.297 88.0877 229.857C87.1245 228.726 86.0591 227.686 84.905 226.751C81.0432 223.715 76.5198 221.639 71.705 220.694C66.8722 219.785 61.9472 219.469 57.0384 219.752C55.1537 219.818 53.6284 219.914 52.5724 219.966C52.0268 220.024 51.4775 220.039 50.9297 220.01C51.0647 219.964 51.2053 219.937 51.3477 219.929L52.5577 219.782C53.6064 219.671 55.1317 219.531 57.0237 219.421C61.956 219.042 66.9165 219.315 71.7784 220.231C76.6745 221.186 81.2579 223.345 85.1177 226.516C86.2683 227.484 87.3108 228.575 88.227 229.769C88.49 230.089 88.7348 230.423 88.9604 230.77C89.0358 230.878 89.0997 230.994 89.151 231.116Z" fill="#263238"/>
<path d="M88.9463 206.644C88.9463 206.776 81.1143 206.769 71.4563 206.644C61.7983 206.519 53.9736 206.283 53.9736 206.151C53.9736 206.018 61.8056 206.033 71.4636 206.151C81.1216 206.269 88.9536 206.475 88.9463 206.644Z" fill="#263238"/>
<g opacity="0.5">
<path d="M177.716 248.486C177.708 248.336 177.708 248.186 177.716 248.037C177.716 247.72 177.716 247.301 177.716 246.719C177.716 246.138 177.716 245.416 177.628 244.57C177.54 243.724 177.525 242.745 177.415 241.626C176.843 235.424 175.506 229.318 173.433 223.447C172.017 219.386 170.273 215.448 168.219 211.671C165.921 207.323 163.118 203.263 159.866 199.578C156.248 195.517 151.76 192.332 146.74 190.261C141.346 188.04 135.585 186.856 129.756 186.772C126.81 186.745 123.867 186.957 120.956 187.405C118.132 187.889 115.349 188.591 112.632 189.503C110.017 190.406 107.479 191.521 105.042 192.837L104.148 193.315L103.282 193.838L101.559 194.868L99.9385 195.994L99.1318 196.553L98.3984 197.164C94.5085 200.167 91.1217 203.775 88.3665 207.851C85.9578 211.4 84.0063 215.24 82.5585 219.281C81.3704 222.622 80.518 226.074 80.0138 229.585C79.8451 231.138 79.6545 232.581 79.6251 233.92C79.5958 235.26 79.5591 236.481 79.5665 237.6C79.5738 238.719 79.6838 239.676 79.7205 240.544C79.7571 241.413 79.8745 242.104 79.9478 242.679C80.0211 243.253 80.0651 243.672 80.1091 243.989C80.1531 244.305 80.1091 244.438 80.1091 244.438C80.1091 244.438 80.1091 244.29 80.0211 243.996C79.9331 243.702 79.9038 243.26 79.8158 242.693C79.7278 242.127 79.5958 241.405 79.5445 240.559C79.4931 239.712 79.3391 238.734 79.3465 237.615C79.3538 236.496 79.2731 235.274 79.3465 233.935C79.4198 232.595 79.5445 231.131 79.7058 229.57C80.1812 226.04 81.0167 222.567 82.1991 219.208C83.6334 215.129 85.5802 211.251 87.9925 207.667C90.761 203.547 94.1675 199.897 98.0831 196.855L98.8531 196.244L99.6671 195.678L101.302 194.529L103.026 193.477L103.891 192.947L104.793 192.469C107.245 191.133 109.804 190.003 112.442 189.09C115.184 188.165 117.994 187.454 120.846 186.963C123.789 186.508 126.764 186.294 129.741 186.323C135.623 186.414 141.434 187.618 146.872 189.871C151.953 191.963 156.498 195.181 160.167 199.284C163.418 203.022 166.217 207.133 168.505 211.531C170.554 215.323 172.286 219.279 173.682 223.359C175.736 229.261 177.033 235.402 177.54 241.633C177.74 243.912 177.798 246.2 177.716 248.486Z" fill="white"/>
</g>
<path d="M434.229 168.526C434.247 168.685 434.247 168.846 434.229 169.005C434.185 169.373 434.126 169.822 434.053 170.374C433.892 171.559 433.65 173.274 433.496 175.401C433.273 177.885 433.386 180.388 433.833 182.842C434.41 185.836 435.845 188.596 437.962 190.783C440.108 192.941 442.674 194.632 445.5 195.751C447.802 196.659 450.184 197.348 452.614 197.812C454.704 198.231 456.412 198.489 457.586 198.68L458.942 198.909C459.102 198.928 459.26 198.965 459.412 199.019C459.251 199.046 459.088 199.046 458.928 199.019L457.564 198.879C456.376 198.739 454.63 198.533 452.555 198.143C450.077 197.719 447.647 197.045 445.302 196.134C442.404 195.017 439.773 193.299 437.58 191.092C435.421 188.838 433.967 185.998 433.4 182.923C432.969 180.432 432.885 177.893 433.151 175.379C433.356 173.237 433.65 171.522 433.884 170.344C433.994 169.756 434.09 169.299 434.156 168.99C434.16 168.833 434.184 168.677 434.229 168.526Z" fill="#263238"/>
<path d="M267.564 186.544C267.696 186.511 267.832 186.499 267.967 186.507C268.357 186.488 268.747 186.507 269.133 186.566C269.452 186.604 269.759 186.711 270.034 186.879C270.308 187.046 270.544 187.271 270.725 187.537C270.971 187.893 271.118 188.309 271.151 188.741C271.185 189.173 271.103 189.606 270.915 189.996C270.672 190.454 270.336 190.855 269.928 191.174C269.519 191.492 269.049 191.72 268.547 191.843C267.427 192.085 266.275 192.142 265.136 192.012L257.422 191.571C256.715 191.561 256.016 191.429 255.354 191.181C255.021 191.051 254.719 190.853 254.466 190.599C254.214 190.346 254.017 190.043 253.887 189.709C253.789 189.367 253.773 189.006 253.841 188.657C253.908 188.308 254.058 187.98 254.276 187.699C254.663 187.166 255.207 186.767 255.83 186.558C256.942 186.262 258.093 186.145 259.241 186.213C260.297 186.213 261.287 186.213 262.174 186.286L266.42 186.47C266.942 186.459 267.464 186.486 267.982 186.551C267.851 186.59 267.715 186.607 267.579 186.603C267.315 186.603 266.926 186.639 266.42 186.647C265.415 186.647 263.963 186.647 262.167 186.647C261.272 186.647 260.289 186.647 259.233 186.647C258.133 186.599 257.032 186.723 255.97 187.015C255.432 187.193 254.965 187.539 254.635 188.001C254.459 188.224 254.339 188.486 254.284 188.765C254.229 189.044 254.241 189.332 254.32 189.606C254.43 189.882 254.596 190.132 254.808 190.34C255.02 190.548 255.274 190.709 255.552 190.813C256.166 191.037 256.813 191.154 257.466 191.158L265.173 191.637C266.27 191.773 267.381 191.736 268.466 191.526C268.925 191.427 269.359 191.231 269.738 190.952C270.117 190.673 270.433 190.317 270.666 189.907C270.838 189.568 270.917 189.189 270.897 188.81C270.876 188.43 270.756 188.062 270.549 187.743C270.394 187.49 270.189 187.273 269.945 187.105C269.701 186.938 269.424 186.824 269.133 186.772C268.129 186.566 267.556 186.595 267.564 186.544Z" fill="#263238"/>
<path d="M371.309 185.683C371.442 185.662 371.578 185.662 371.712 185.683C372.102 185.663 372.492 185.683 372.878 185.742C373.197 185.782 373.503 185.889 373.777 186.056C374.052 186.224 374.288 186.448 374.469 186.713C374.716 187.069 374.863 187.484 374.896 187.916C374.93 188.348 374.848 188.781 374.66 189.171C374.417 189.629 374.081 190.031 373.673 190.349C373.264 190.668 372.794 190.896 372.291 191.019C371.167 191.263 370.01 191.32 368.867 191.188L361.152 190.746C360.446 190.736 359.747 190.606 359.084 190.364C358.751 190.234 358.449 190.036 358.196 189.782C357.944 189.529 357.747 189.226 357.617 188.892C357.515 188.551 357.496 188.19 357.562 187.84C357.629 187.49 357.778 187.162 357.999 186.882C358.388 186.351 358.931 185.953 359.553 185.742C360.665 185.448 361.816 185.331 362.963 185.396C364.019 185.396 365.009 185.432 365.897 185.469L370.15 185.653C370.669 185.651 371.188 185.678 371.705 185.734C371.574 185.773 371.438 185.79 371.301 185.786C371.037 185.786 370.649 185.823 370.143 185.837C369.138 185.837 367.686 185.837 365.889 185.837C364.995 185.837 364.012 185.837 362.956 185.837C361.856 185.789 360.755 185.913 359.693 186.205C359.153 186.384 358.685 186.732 358.358 187.199C358.182 187.42 358.062 187.681 358.007 187.959C357.952 188.237 357.964 188.524 358.043 188.796C358.153 189.072 358.319 189.323 358.531 189.531C358.743 189.739 358.997 189.9 359.275 190.003C359.889 190.226 360.536 190.345 361.189 190.356L368.896 190.827C369.993 190.967 371.104 190.93 372.189 190.717C372.647 190.617 373.08 190.423 373.459 190.145C373.838 189.867 374.155 189.513 374.389 189.105C374.558 188.764 374.635 188.384 374.615 188.004C374.594 187.624 374.476 187.255 374.271 186.934C374.115 186.688 373.909 186.478 373.666 186.317C373.424 186.156 373.15 186.048 372.863 185.999C371.873 185.705 371.301 185.734 371.309 185.683Z" fill="#263238"/>
<path d="M386.944 170.175C386.944 170.175 386.944 170.315 386.841 170.587C386.738 170.86 386.658 171.279 386.511 171.816L385.198 176.571C384.032 180.744 382.331 186.875 380.16 194.603V194.647H380.116C376.433 196.376 373.03 198.654 370.026 201.404C368.325 202.946 366.753 204.624 365.325 206.423C363.807 208.357 362.434 210.401 361.218 212.539C358.606 217.244 356.633 222.279 355.352 227.51C353.875 233.262 353.111 239.175 353.078 245.115V245.291H352.91H279.342L184.448 245.255H184.309V245.122C181.867 225.633 180.4 209.588 179.469 198.364C179.014 192.77 178.736 188.399 178.501 185.425C178.406 183.953 178.332 182.805 178.281 182.032C178.23 181.259 178.2 180.884 178.2 180.884C178.2 180.884 178.244 181.274 178.303 182.039C178.362 182.805 178.457 183.946 178.567 185.425C178.809 188.369 179.168 192.785 179.623 198.357C180.584 209.536 182.131 225.589 184.544 245.122L184.397 244.99H279.29H352.858L352.69 245.166C352.732 239.206 353.506 233.273 354.992 227.502C356.301 222.246 358.304 217.19 360.947 212.466C362.172 210.316 363.557 208.261 365.09 206.32C366.531 204.516 368.115 202.832 369.828 201.286C372.859 198.532 376.289 196.254 379.999 194.529L379.94 194.596L385.073 176.593C385.667 174.525 386.122 172.913 386.438 171.846C386.592 171.316 386.709 170.911 386.797 170.631C386.885 170.352 386.944 170.175 386.944 170.175Z" fill="#263238"/>
<path d="M281.19 173.907C281.196 173.968 281.196 174.03 281.19 174.091C281.19 174.231 281.153 174.407 281.131 174.628C281.072 175.129 280.984 175.82 280.874 176.689C280.764 177.557 280.618 178.683 280.486 179.957C280.354 181.23 280.17 182.68 280.038 184.292C279.906 185.904 279.738 187.655 279.628 189.547C279.518 191.438 279.408 193.47 279.305 195.597C279.166 199.858 279.129 204.554 279.305 209.47C279.481 214.387 279.833 219.075 280.266 223.314C280.5 225.434 280.713 227.451 280.999 229.328C281.285 231.204 281.512 232.956 281.769 234.553C282.026 236.15 282.29 237.578 282.502 238.844C282.715 240.11 282.928 241.192 283.111 242.075C283.294 242.958 283.404 243.621 283.5 244.114L283.595 244.651C283.605 244.712 283.605 244.774 283.595 244.835C283.566 244.78 283.546 244.72 283.536 244.658C283.497 244.521 283.453 244.344 283.404 244.129C283.294 243.635 283.14 242.958 282.942 242.105C282.744 241.251 282.502 240.147 282.268 238.881C282.033 237.615 281.725 236.194 281.476 234.597C281.226 233 280.911 231.256 280.662 229.372C280.412 227.488 280.148 225.478 279.928 223.351C279.481 219.105 279.114 214.416 278.938 209.485C278.762 204.554 278.836 199.858 278.99 195.582C279.1 193.448 279.188 191.424 279.349 189.525C279.51 187.626 279.642 185.845 279.811 184.262C279.98 182.68 280.156 181.208 280.31 179.935C280.464 178.661 280.625 177.565 280.764 176.674C280.904 175.784 281.014 175.114 281.094 174.621L281.19 174.083C281.181 174.025 281.181 173.965 281.19 173.907Z" fill="#263238"/>
<path d="M179.087 171.809C176.741 173.575 173.221 174.017 170.361 173.421C167.501 172.825 165.227 171.493 163.761 168.939L170.214 168.652L179.087 171.809Z" fill="#263238"/>
<path d="M170.199 168.652C170.199 168.652 176.711 172.633 178.603 172.089C180.495 171.544 210.87 147.462 229.167 138.167C227.375 137.5 225.503 137.074 223.601 136.901C223.601 136.901 215.079 141.228 204.446 147.646C196.379 152.533 188.129 157.656 184.279 160.011L170.199 168.652Z" fill="#455A64"/>
<path d="M191.026 173.76L190.813 173.892L190.175 174.267L187.682 175.688L178.281 180.98C172.414 180.766 164.824 180.612 156.149 180.98C151.815 181.171 147.209 181.48 142.413 181.973C137.617 182.466 132.623 183.151 127.512 183.968C118.558 185.366 110.117 187.14 102.388 188.56C95.5392 189.812 88.6209 190.646 81.6714 191.056C75.7387 191.394 70.9207 191.306 67.606 191.21C65.9413 191.159 64.6727 191.092 63.7854 191.041L62.788 190.975C62.6757 190.981 62.563 190.981 62.4507 190.975C62.4507 190.975 62.568 190.975 62.7953 190.975H63.7854C64.658 190.975 65.9853 191.048 67.606 191.078C70.928 191.129 75.7313 191.173 81.6567 190.798C88.5673 190.355 95.4458 189.502 102.256 188.244C109.971 186.772 118.426 185.02 127.387 183.615C132.521 182.798 137.5 182.143 142.311 181.627C147.121 181.112 151.734 180.84 156.075 180.671C164.758 180.332 172.333 180.531 178.229 180.781H178.163L187.623 175.629L190.146 174.26L190.799 173.914C190.867 173.852 190.943 173.8 191.026 173.76Z" fill="#263238"/>
<path d="M197.941 174.518C244.053 172.449 337.069 170.727 383.181 168.63C383.181 168.63 384.699 163.544 380.358 160.364C378.781 159.209 369.204 151.937 358.02 147.661C344.305 142.523 329.992 139.167 315.428 137.673C307.215 137.004 292.189 136.393 292.189 136.393C292.189 136.393 264.682 137.497 256.989 138.189C247.315 138.995 237.87 141.575 229.122 145.799C219.552 150.612 202.825 164.692 202.825 164.692L191.092 174.54L197.941 174.518Z" fill="#455A64"/>
<path d="M282.803 135.061L273.9 173.252L290.041 172.736L293.245 135.061H282.803Z" fill="#263238"/>
<path d="M352.565 144.305L351.003 170.175H353.24L354.758 145.114L352.565 144.305Z" fill="#263238"/>
<path d="M199.687 165.759C200.42 166.709 204.49 175.953 204.49 175.953L188.914 174.93L199.687 165.759Z" fill="#263238"/>
<path d="M214.295 175.033L202.4 175.364C200.838 175.364 199.606 172.552 199.657 169.13C199.701 166.068 200.757 163.485 202.151 163.036L213.422 159.452L214.295 175.033Z" fill="#FDAF36"/>
<path d="M287.855 134.626C287.958 134.626 286.696 143.341 285.046 154.064C283.396 164.788 281.959 173.465 281.856 173.443C281.754 173.421 283.008 164.729 284.665 154.005C286.322 143.282 287.745 134.604 287.855 134.626Z" fill="#455A64"/>
<path d="M200.148 165.192C199.749 166.589 199.135 167.915 198.33 169.123C197.633 170.397 196.74 171.552 195.682 172.545C195.594 172.472 196.782 170.955 198.007 168.924C199.232 166.893 200.046 165.148 200.148 165.192Z" fill="#455A64"/>
<path d="M265.965 142.008C265.918 142.118 265.859 142.221 265.789 142.318L265.239 143.179C264.719 143.974 264.015 145.033 263.164 146.314C261.397 148.956 258.969 152.607 256.322 156.67C253.675 160.732 251.321 164.427 249.619 167.106L247.588 170.271C247.368 170.617 247.177 170.896 247.023 171.125C246.965 171.229 246.893 171.325 246.811 171.412C246.811 171.412 246.847 171.294 246.957 171.088L247.463 170.197C247.911 169.424 248.563 168.32 249.385 166.966C251.035 164.243 253.359 160.519 255.985 156.456C258.61 152.393 261.118 148.765 262.915 146.152C263.824 144.857 264.572 143.804 265.115 143.09C265.364 142.766 265.562 142.494 265.731 142.266C265.899 142.038 265.951 142.001 265.965 142.008Z" fill="#EBEBEB"/>
<path d="M259.197 147.764C258.093 149.644 256.881 151.457 255.567 153.196C254.36 155.011 253.045 156.751 251.629 158.406C252.734 156.527 253.946 154.714 255.259 152.975C256.467 151.161 257.782 149.421 259.197 147.764Z" fill="#EBEBEB"/>
<path d="M493.277 194.978C493.277 194.978 489.449 195.221 486.559 193.977C485.463 193.514 484.471 192.834 483.643 191.977C482.814 191.12 482.166 190.105 481.737 188.992C481.308 187.878 481.107 186.69 481.145 185.496C481.184 184.303 481.461 183.13 481.961 182.047L482.005 181.959C482.668 180.578 483.696 179.408 484.979 178.577C486.261 177.746 487.747 177.286 489.273 177.248H490.871C491.464 178.444 491.818 179.744 491.913 181.075C492.345 184.564 492.998 189.915 493.277 194.978Z" fill="#E2E2E2"/>
<path d="M323.884 143.245C323.972 143.304 320.452 149.023 316.023 156.022C311.593 163.021 307.956 168.644 307.839 168.585C307.721 168.527 311.263 162.815 315.7 155.816C320.137 148.816 323.796 143.186 323.884 143.245Z" fill="#EBEBEB"/>
<path d="M322.667 150.465C321.902 152.001 321.025 153.477 320.041 154.881C319.17 156.363 318.19 157.778 317.108 159.113C317.877 157.578 318.757 156.103 319.741 154.697C320.61 153.216 321.588 151.801 322.667 150.465Z" fill="#EBEBEB"/>
<path d="M211.574 161.667C208.677 163.044 205.58 163.95 202.4 164.353C202.4 164.243 204.453 163.75 206.976 163.007C209.499 162.263 211.537 161.564 211.574 161.667Z" fill="#EBEBEB"/>
<path d="M275.411 177.837C275.411 177.947 256.058 178.028 232.195 178.028C208.333 178.028 188.973 177.947 188.973 177.837C188.973 177.727 208.318 177.646 232.195 177.646C256.073 177.646 275.411 177.734 275.411 177.837Z" fill="#EBEBEB"/>
<path d="M269.06 185.55C266.974 185.744 264.877 185.808 262.783 185.742C260.686 185.808 258.587 185.744 256.498 185.55C258.587 185.361 260.686 185.297 262.783 185.359C264.877 185.297 266.973 185.361 269.06 185.55Z" fill="#EBEBEB"/>
<path d="M128.539 194.294C128.378 194.309 128.216 194.309 128.055 194.294C127.739 194.294 127.277 194.294 126.683 194.294C125.007 194.295 123.331 194.398 121.667 194.603C116.159 195.261 110.857 197.103 106.123 200.004C101.389 202.905 97.3332 206.797 94.2333 211.413C93.2902 212.804 92.433 214.252 91.6666 215.748C91.3806 216.278 91.1973 216.698 91.0506 216.977C90.9906 217.127 90.9117 217.268 90.8159 217.397C90.8595 217.243 90.9159 217.093 90.9846 216.948C91.1093 216.661 91.2706 216.212 91.5346 215.682C92.2519 214.153 93.0778 212.677 94.0059 211.266C97.0719 206.564 101.142 202.605 105.921 199.677C110.701 196.749 116.069 194.926 121.638 194.338C123.315 194.15 125.004 194.086 126.691 194.147C127.285 194.147 127.747 194.213 128.062 194.235C128.223 194.235 128.383 194.255 128.539 194.294Z" fill="#EBEBEB"/>
<path d="M349.58 175.798C349.58 175.901 336.769 175.99 320.98 175.99C305.191 175.99 292.38 175.901 292.38 175.798C292.38 175.695 305.184 175.607 320.98 175.607C336.776 175.607 349.58 175.688 349.58 175.798Z" fill="#EBEBEB"/>
<path d="M374.675 184.424C373.987 184.483 373.295 184.483 372.607 184.424C371.331 184.424 369.571 184.358 367.627 184.343C365.684 184.328 363.924 184.343 362.648 184.343C361.959 184.392 361.267 184.38 360.58 184.306C361.258 184.16 361.948 184.081 362.641 184.071C363.917 183.99 365.677 183.924 367.627 183.931C369.578 183.938 371.345 184.027 372.621 184.13C373.314 184.156 374.002 184.254 374.675 184.424Z" fill="#EBEBEB"/>
<path d="M421.109 117.713C419.748 117.713 418.442 117.17 417.479 116.204C416.516 115.238 415.976 113.928 415.976 112.561V106.673C415.976 106.673 411.759 106.011 411.708 101.779C411.656 97.5468 412.39 87.7948 412.39 87.7948C414.788 86.7613 417.418 86.389 420.008 86.7163C422.598 87.0436 425.054 88.0588 427.122 89.6569L426.125 112.929C426.044 114.214 425.482 115.421 424.552 116.308C423.622 117.195 422.392 117.697 421.109 117.713Z" fill="#EBB6A2"/>
<path d="M416.034 106.636C417.983 106.67 419.897 106.122 421.534 105.061C421.534 105.061 420.229 108.116 416.02 107.733L416.034 106.636Z" fill="#AA6550"/>
<path d="M426.712 94.5659C426.785 94.5659 429.645 93.7121 429.52 96.6046C429.396 99.4971 426.55 98.8126 426.55 98.7243C426.55 98.636 426.712 94.5659 426.712 94.5659Z" fill="#EBB6A2"/>
<path d="M427.467 97.6571C427.467 97.6571 427.511 97.6939 427.599 97.7381C427.658 97.763 427.722 97.7758 427.786 97.7758C427.85 97.7758 427.914 97.763 427.973 97.7381C428.163 97.6271 428.32 97.4666 428.427 97.2737C428.534 97.0807 428.588 96.8623 428.582 96.6415C428.598 96.3904 428.558 96.1388 428.464 95.9055C428.441 95.814 428.395 95.7299 428.331 95.6606C428.267 95.5913 428.187 95.5389 428.098 95.508C428.041 95.4893 427.979 95.4916 427.924 95.5145C427.869 95.5375 427.824 95.5796 427.797 95.6331C427.76 95.7141 427.797 95.773 427.76 95.7803C427.724 95.7877 427.702 95.7288 427.76 95.6111C427.779 95.539 427.824 95.4763 427.885 95.4344C427.924 95.4044 427.969 95.383 428.017 95.3716C428.065 95.3602 428.115 95.359 428.164 95.3682C428.279 95.3983 428.386 95.4563 428.474 95.5371C428.562 95.6179 428.629 95.7191 428.67 95.8319C428.786 96.0852 428.839 96.363 428.824 96.6415C428.832 96.9009 428.762 97.1568 428.623 97.376C428.485 97.5951 428.284 97.7675 428.046 97.8706C427.969 97.889 427.888 97.8906 427.81 97.8754C427.731 97.8601 427.657 97.8284 427.592 97.7823C427.467 97.716 427.452 97.6645 427.467 97.6571Z" fill="#AA6550"/>
<path d="M413.974 94.4041C413.974 94.5623 414.035 94.7145 414.144 94.8284C414.253 94.9424 414.403 95.0092 414.56 95.015C414.637 95.021 414.713 95.0115 414.786 94.9872C414.859 94.9629 414.926 94.9242 414.983 94.8734C415.041 94.8226 415.087 94.7608 415.12 94.6915C415.154 94.6223 415.173 94.5471 415.176 94.4703C415.178 94.392 415.165 94.3141 415.137 94.241C415.109 94.1679 415.067 94.1011 415.013 94.0444C414.959 93.9877 414.895 93.9421 414.823 93.9104C414.752 93.8787 414.675 93.8613 414.597 93.8594C414.52 93.8534 414.443 93.8628 414.37 93.887C414.297 93.9113 414.23 93.9499 414.172 94.0006C414.113 94.0513 414.066 94.1131 414.032 94.1823C413.998 94.2516 413.978 94.327 413.974 94.4041Z" fill="#263238"/>
<path d="M413.241 93.8005C413.321 93.8741 413.776 93.5355 414.421 93.5429C415.067 93.5502 415.551 93.8667 415.617 93.7858C415.683 93.7048 415.573 93.6091 415.367 93.4546C415.086 93.2622 414.754 93.1596 414.414 93.1602C414.076 93.1612 413.748 93.2694 413.475 93.4693C413.277 93.6238 413.204 93.7637 413.241 93.8005Z" fill="#263238"/>
<path d="M420.324 94.4041C420.324 94.5623 420.385 94.7145 420.495 94.8284C420.604 94.9424 420.753 95.0092 420.911 95.015C420.987 95.021 421.064 95.0115 421.137 94.9872C421.209 94.9629 421.276 94.9242 421.334 94.8734C421.391 94.8226 421.438 94.7608 421.471 94.6915C421.504 94.6223 421.523 94.5471 421.527 94.4703C421.529 94.392 421.515 94.3141 421.487 94.241C421.459 94.1679 421.417 94.1011 421.363 94.0444C421.31 93.9877 421.245 93.9421 421.174 93.9104C421.102 93.8787 421.026 93.8613 420.948 93.8594C420.871 93.8534 420.794 93.8628 420.721 93.887C420.648 93.9113 420.58 93.9499 420.522 94.0006C420.464 94.0513 420.417 94.1131 420.383 94.1823C420.349 94.2516 420.329 94.327 420.324 94.4041Z" fill="#263238"/>
<path d="M419.621 93.9182C419.694 93.9992 420.148 93.6606 420.801 93.6606C421.454 93.6606 421.923 93.9918 421.989 93.9108C422.055 93.8299 421.952 93.7342 421.74 93.5796C421.461 93.3829 421.127 93.2798 420.786 93.2852C420.449 93.282 420.12 93.3878 419.848 93.587C419.65 93.7416 419.584 93.8814 419.621 93.9182Z" fill="#263238"/>
<path d="M417.266 98.7465C416.924 98.6377 416.569 98.5734 416.21 98.5551C416.049 98.5551 415.888 98.5036 415.858 98.3932C415.845 98.2215 415.883 98.0497 415.968 97.9001C416.13 97.4953 416.291 97.0757 416.46 96.6341C416.916 95.5621 417.284 94.4544 417.56 93.3221C417.022 94.3566 416.565 95.432 416.196 96.5385C416.034 96.9801 415.88 97.4069 415.726 97.8117C415.624 98.0113 415.596 98.2407 415.646 98.4594C415.668 98.519 415.704 98.5723 415.751 98.6147C415.799 98.657 415.856 98.6871 415.917 98.7023C416.008 98.7296 416.101 98.7445 416.196 98.7465C416.551 98.7929 416.911 98.7929 417.266 98.7465Z" fill="#263238"/>
<path d="M419.459 99.6529C419.413 99.7451 418.754 99.4228 418.062 99.7753C417.37 100.128 417.079 100.796 416.99 100.76C416.902 100.724 416.941 100.546 417.075 100.26C417.252 99.8728 417.563 99.5637 417.951 99.3903C418.31 99.2286 418.717 99.2119 419.089 99.3436C419.357 99.462 419.482 99.6068 419.459 99.6529Z" fill="#263238"/>
<path d="M419.466 91.3717C419.532 91.5484 420.2 91.46 420.933 91.5557C421.666 91.6514 422.304 91.8575 422.4 91.6956C422.495 91.5336 422.341 91.4527 422.092 91.2834C421.762 91.0679 421.384 90.9365 420.992 90.9007C420.603 90.8535 420.209 90.8989 419.841 91.0332C419.562 91.1436 419.422 91.2834 419.466 91.3717Z" fill="#263238"/>
<path d="M413.483 91.9164C413.593 92.0636 414.04 91.9164 414.583 91.9164C415.125 91.9164 415.573 92.0194 415.675 91.8649C415.778 91.7103 415.675 91.6367 415.455 91.4969C415.187 91.3286 414.875 91.2443 414.559 91.2548C414.243 91.2653 413.937 91.3701 413.681 91.5557C413.497 91.6882 413.431 91.8281 413.483 91.9164Z" fill="#263238"/>
<path d="M410.388 85.204C410.36 84.9408 410.398 84.6748 410.499 84.4303C410.6 84.1859 410.761 83.9711 410.967 83.8056C411.182 83.6391 411.451 83.5582 411.722 83.5786C411.993 83.599 412.246 83.7192 412.434 83.916C412.395 83.7388 412.393 83.5554 412.429 83.3775C412.464 83.1995 412.536 83.031 412.641 82.8827C412.745 82.7344 412.879 82.6096 413.034 82.5163C413.189 82.4231 413.362 82.3633 413.541 82.341C414.231 82.3042 414.817 82.8194 415.485 83.0034C416.147 83.1485 416.838 83.0683 417.45 82.7752C418.073 82.525 418.66 82.1791 419.291 81.9435C420.626 81.4545 422.1 81.5141 423.392 82.1095C424.684 82.7048 425.69 83.7877 426.191 85.123C426.663 85.0083 427.158 85.0389 427.612 85.2109C428.066 85.3829 428.458 85.6883 428.736 86.0872C429.27 86.9091 429.484 87.8993 429.337 88.8693C429.245 89.5181 429.083 90.1548 428.853 90.7682C428.853 90.827 428.853 90.8786 428.853 90.9301C428.809 93.2632 428.545 95.9938 427.555 96.0085C425.832 96.0085 426.243 92.7774 426.243 92.7774C424.123 91.9531 424.915 88.7663 424.38 88.2879C423.845 87.8095 422.745 86.6834 418.315 88.9576C416.664 89.699 414.821 89.8973 413.05 89.5243H412.94C412.539 89.425 412.155 89.2636 411.803 89.0459C411.388 88.8063 411.059 88.4403 410.865 88.0008C410.772 87.779 410.746 87.5352 410.789 87.2988C410.832 87.0624 410.942 86.8435 411.107 86.6687C410.721 86.2674 410.47 85.7554 410.388 85.204Z" fill="#263238"/>
<path d="M462.55 113.798C462.447 113.974 461.244 116.248 461.244 116.248C461.244 116.248 462.198 112.532 462.234 112.399C462.542 111.185 461.794 111.31 461.574 111.744C461.354 112.178 459.998 115.844 459.998 115.844C461.266 111.074 460.87 110.648 460.511 110.574C460.152 110.5 459.044 114.865 459.044 114.865C458.753 114.369 458.361 113.94 457.893 113.606C456.742 112.811 454.828 113.606 454.74 114.151C454.652 114.696 455.326 114.843 455.326 114.843C455.596 114.638 455.92 114.517 456.257 114.495C456.595 114.472 456.931 114.55 457.225 114.717C457.519 114.885 457.758 115.135 457.912 115.437C458.066 115.74 458.128 116.08 458.091 116.418C458.066 116.667 457.957 116.9 457.78 117.077C457.604 117.253 457.371 117.363 457.123 117.388C456.875 117.412 456.626 117.349 456.419 117.21C456.211 117.071 456.059 116.863 455.986 116.624C455.51 114.475 454.776 115.152 454.776 115.152L455.51 119.899L454.732 122.284L450.45 133.935L442.266 125.382C442.266 125.382 437.866 135.09 437.792 135.414C437.719 135.738 441.892 139.992 444.634 142.825C445.605 143.825 446.827 144.543 448.17 144.905C449.513 145.267 450.928 145.26 452.267 144.883C453.606 144.507 454.82 143.775 455.78 142.766C456.74 141.756 457.412 140.505 457.724 139.145L460.958 122.416L462.476 116.933C462.476 116.933 463.019 114.725 463.151 114.188C463.32 113.547 462.836 113.334 462.55 113.798Z" fill="#EBB6A2"/>
<path d="M389.847 146.483C392.289 146.918 395.09 145.151 396.594 143.171L402.688 135.112L395.523 128.702L389.106 136.724L365.009 135.443L359.333 132.264C358.944 132.044 358.492 131.961 358.05 132.028L350.218 134.236L357.551 136.503L370.377 141.346L389.847 146.483Z" fill="#EBB6A2"/>
<path d="M444.466 265.016L445.478 269.278C445.478 269.278 452.415 278.316 454.556 277.874C455.957 277.587 454.234 275.224 451.623 268.358L451.073 265.524L444.466 265.016Z" fill="#FDAF36"/>
<path d="M454.835 276.564C454.824 276.608 454.807 276.65 454.784 276.689C454.713 276.805 454.611 276.9 454.49 276.961C454.302 277.063 454.089 277.112 453.874 277.101C453.592 277.073 453.322 276.971 453.09 276.807C451.846 275.805 450.677 274.712 449.592 273.539C448.493 272.382 447.458 271.165 446.49 269.896C446.123 269.403 445.83 269.005 445.639 268.718C445.558 268.608 445.485 268.497 445.419 268.394C445.392 268.357 445.368 268.317 445.346 268.277C445.346 268.277 445.382 268.277 445.441 268.38L445.683 268.689L446.57 269.837C447.304 270.794 448.404 272.096 449.687 273.443C450.77 274.608 451.923 275.704 453.141 276.726C453.323 276.878 453.544 276.976 453.778 277.009C454.012 277.043 454.251 277.011 454.468 276.917C454.622 276.838 454.749 276.715 454.835 276.564Z" fill="#263238"/>
<path d="M453.852 273.62C453.852 273.62 453.632 273.62 453.295 273.62C452.851 273.688 452.427 273.849 452.048 274.091C451.658 274.316 451.334 274.641 451.11 275.033C450.941 275.335 450.897 275.548 450.875 275.548C450.878 275.353 450.928 275.161 451.022 274.989C451.235 274.565 451.566 274.213 451.975 273.973C452.369 273.723 452.816 273.569 453.28 273.524C453.476 273.5 453.675 273.533 453.852 273.62Z" fill="#263238"/>
<path d="M447.289 271.508C447.289 271.508 447.363 271.206 447.414 270.713C447.483 270.072 447.363 269.424 447.069 268.851C446.779 268.273 446.315 267.802 445.742 267.504C445.506 267.392 445.261 267.301 445.009 267.232C445.082 267.22 445.156 267.22 445.229 267.232C445.428 267.266 445.623 267.325 445.808 267.408C446.415 267.694 446.908 268.176 447.209 268.777C447.521 269.373 447.634 270.055 447.531 270.72C447.502 270.918 447.456 271.112 447.392 271.302C447.333 271.412 447.333 271.515 447.289 271.508Z" fill="#263238"/>
<path d="M444.913 265.737C445.109 266.161 445.237 266.613 445.294 267.077C445.419 267.813 445.558 268.424 445.529 268.439C445.334 268.015 445.21 267.563 445.162 267.099C445.03 266.348 444.876 265.752 444.913 265.737Z" fill="#263238"/>
<path d="M451.733 268.961C451.733 268.998 451.337 268.961 450.875 269.094C450.413 269.226 450.061 269.388 450.039 269.351C450.262 269.147 450.54 269.011 450.838 268.961C451.13 268.872 451.441 268.872 451.733 268.961Z" fill="#263238"/>
<path d="M451.858 269.69C451.858 269.69 451.528 269.69 451.124 269.785C450.721 269.881 450.464 270.058 450.435 270.021C450.606 269.826 450.84 269.696 451.095 269.653C451.345 269.568 451.617 269.581 451.858 269.69Z" fill="#263238"/>
<path d="M452.415 270.602C452.171 270.578 451.925 270.578 451.682 270.602C451.445 270.683 451.214 270.782 450.992 270.897C451.064 270.781 451.16 270.683 451.274 270.609C451.388 270.535 451.518 270.488 451.652 270.47C451.781 270.433 451.917 270.426 452.049 270.449C452.181 270.472 452.306 270.525 452.415 270.602Z" fill="#263238"/>
<path d="M451.241 268.652C451.164 268.662 451.085 268.662 451.007 268.652C450.798 268.609 450.592 268.553 450.391 268.483C450.093 268.377 449.804 268.249 449.525 268.1C449.362 268.01 449.206 267.909 449.056 267.798C448.962 267.742 448.881 267.665 448.82 267.574C448.759 267.482 448.719 267.378 448.704 267.268C448.712 267.209 448.733 267.152 448.765 267.102C448.797 267.051 448.84 267.009 448.89 266.976C448.94 266.944 448.997 266.923 449.056 266.915C449.115 266.907 449.175 266.912 449.232 266.93C449.421 266.993 449.589 267.108 449.716 267.261C449.943 267.478 450.156 267.709 450.354 267.953C450.523 268.166 450.655 268.343 450.735 268.468C450.783 268.529 450.823 268.596 450.853 268.667C450.853 268.667 450.64 268.417 450.281 268.019C450.105 267.82 449.885 267.592 449.628 267.349C449.514 267.217 449.368 267.118 449.203 267.062C449.049 267.025 448.843 267.106 448.843 267.276C448.843 267.445 448.99 267.585 449.129 267.695C449.269 267.806 449.437 267.901 449.591 267.99C449.86 268.144 450.14 268.28 450.427 268.394C450.919 268.564 451.241 268.63 451.241 268.652Z" fill="#263238"/>
<path d="M450.875 268.564C450.862 268.493 450.862 268.421 450.875 268.35C450.875 268.218 450.875 268.019 450.919 267.776C450.952 267.485 451.026 267.2 451.139 266.93C451.206 266.769 451.297 266.62 451.41 266.488C451.468 266.398 451.555 266.33 451.657 266.298C451.759 266.266 451.869 266.271 451.967 266.312C452.048 266.376 452.109 266.462 452.143 266.56C452.177 266.657 452.182 266.763 452.158 266.864C452.129 267.036 452.077 267.205 452.004 267.364C451.886 267.637 451.719 267.886 451.513 268.1C451.375 268.241 451.226 268.369 451.066 268.483C450.956 268.556 450.89 268.593 450.882 268.586C450.875 268.578 451.117 268.394 451.439 268.034C451.627 267.828 451.779 267.592 451.887 267.335C451.953 267.187 452 267.031 452.026 266.871C452.026 266.716 452.026 266.518 451.901 266.451C451.777 266.385 451.615 266.451 451.505 266.599C451.404 266.723 451.318 266.858 451.249 267.003C451.136 267.262 451.057 267.534 451.014 267.813C450.981 268.066 450.935 268.316 450.875 268.564Z" fill="#263238"/>
<g opacity="0.4">
<path d="M445.478 269.278L444.986 267.232C444.986 267.232 446.688 267.548 447.128 268.821C447.39 269.526 447.505 270.278 447.465 271.029L451.132 275.026C451.132 275.026 452.063 273.208 453.742 273.642C453.742 273.642 455.062 276.586 455.018 277.285C454.974 277.985 454.131 277.933 453.83 277.793C452.61 277.081 451.496 276.199 450.523 275.173C448.587 273.112 446.424 270.529 445.478 269.278Z" fill="black"/>
</g>
<path d="M409.985 267.173L409.948 261.491L420.545 261.366L420.684 269.668L420.024 269.719C417.091 269.918 405.152 270.521 403.157 269.947C401.009 269.314 409.985 267.173 409.985 267.173Z" fill="#FDAF36"/>
<g opacity="0.4">
<path d="M416.841 269.631C416.985 268.733 417.455 267.92 418.161 267.349C418.853 266.777 419.737 266.49 420.632 266.547V269.491L416.841 269.631Z" fill="black"/>
</g>
<g opacity="0.4">
<path d="M405.599 268.372C405.599 268.372 402.453 269.329 402.857 269.844C403.26 270.36 415.323 270.205 420.684 269.668V269.432L406.575 269.734C406.575 269.734 406.215 268.394 405.599 268.372Z" fill="black"/>
</g>
<path d="M420.83 269.425H420.647L420.126 269.462L418.198 269.572C416.57 269.645 414.326 269.726 411.84 269.762C409.354 269.799 407.11 269.762 405.482 269.762L403.553 269.704H403.032H402.849H403.582H405.511C407.139 269.704 409.383 269.704 411.869 269.704C414.355 269.704 416.599 269.608 418.227 269.55L420.148 269.484H420.676L420.83 269.425Z" fill="#263238"/>
<path d="M406.56 269.896C406.465 269.578 406.34 269.27 406.186 268.976C405.991 268.707 405.767 268.46 405.519 268.24C405.839 268.376 406.11 268.606 406.296 268.901C406.482 269.196 406.574 269.54 406.56 269.889V269.896Z" fill="#263238"/>
<path d="M409.662 268.262C409.662 268.262 409.478 268.107 409.324 267.864C409.17 267.622 409.06 267.408 409.09 267.386C409.119 267.364 409.273 267.548 409.434 267.791C409.596 268.034 409.691 268.247 409.662 268.262Z" fill="#263238"/>
<path d="M410.512 267.798C410.512 267.798 410.322 267.717 410.139 267.555C409.955 267.393 409.823 267.239 409.845 267.209C409.867 267.18 410.036 267.298 410.227 267.46C410.417 267.622 410.542 267.769 410.512 267.798Z" fill="#263238"/>
<path d="M411.048 266.79C410.87 266.855 410.679 266.88 410.49 266.863C410.306 266.889 410.117 266.871 409.94 266.812C410.117 266.75 410.304 266.726 410.49 266.738C410.678 266.713 410.868 266.731 411.048 266.79Z" fill="#263238"/>
<path d="M411.224 266.076C411.044 266.204 410.828 266.271 410.608 266.267C410.392 266.307 410.169 266.279 409.97 266.186C410.176 266.153 410.384 266.136 410.593 266.135C410.802 266.103 411.013 266.083 411.224 266.076Z" fill="#263238"/>
<path d="M409.295 267.342C409.069 267.382 408.839 267.382 408.613 267.342C408.364 267.314 408.119 267.262 407.88 267.187C407.735 267.15 407.594 267.095 407.462 267.025C407.378 266.98 407.314 266.903 407.286 266.812C407.274 266.761 407.278 266.709 407.296 266.66C407.315 266.612 407.347 266.57 407.388 266.54C407.646 266.407 407.942 266.369 408.224 266.432C408.507 266.495 408.759 266.656 408.936 266.886C409.043 267.017 409.121 267.17 409.163 267.335C409.178 267.395 409.178 267.458 409.163 267.519C409.09 267.311 408.983 267.117 408.848 266.944C408.691 266.766 408.488 266.636 408.261 266.569C407.991 266.484 407.699 266.508 407.447 266.635C407.344 266.716 407.381 266.849 407.506 266.915C407.626 266.984 407.754 267.038 407.887 267.077C408.127 267.152 408.372 267.208 408.62 267.246C409.031 267.327 409.295 267.32 409.295 267.342Z" fill="#263238"/>
<path d="M409.119 267.379C409.074 267.31 409.043 267.233 409.028 267.152C409.013 267.071 409.014 266.988 409.031 266.908C409.049 266.726 409.112 266.551 409.214 266.4C409.27 266.298 409.35 266.213 409.448 266.151C409.545 266.089 409.657 266.053 409.772 266.047C409.807 266.053 409.84 266.066 409.87 266.085C409.9 266.105 409.925 266.13 409.945 266.159C409.965 266.189 409.979 266.222 409.985 266.257C409.992 266.292 409.992 266.328 409.984 266.363C409.973 266.471 409.936 266.575 409.874 266.665C409.79 266.819 409.684 266.96 409.559 267.084C409.346 267.298 409.178 267.379 409.17 267.364C409.163 267.349 409.31 267.239 409.493 267.025C409.598 266.896 409.691 266.759 409.772 266.613C409.867 266.466 409.926 266.201 409.772 266.172C409.618 266.142 409.434 266.334 409.332 266.473C409.237 266.605 409.172 266.756 409.141 266.915C409.12 267.069 409.113 267.224 409.119 267.379Z" fill="#263238"/>
<path d="M420.574 266.518C420.312 266.504 420.051 266.504 419.789 266.518C419.168 266.603 418.582 266.857 418.095 267.254C417.61 267.653 417.247 268.181 417.046 268.777C416.892 269.241 416.878 269.513 416.856 269.513C416.844 269.442 416.844 269.37 416.856 269.3C416.876 269.106 416.913 268.913 416.966 268.726C417.147 268.097 417.513 267.539 418.018 267.125C418.522 266.711 419.14 266.461 419.789 266.407C419.984 266.384 420.181 266.384 420.376 266.407C420.449 266.43 420.516 266.468 420.574 266.518Z" fill="#263238"/>
<path d="M419.423 262.102C419.506 262.835 419.545 263.572 419.54 264.31C419.583 265.045 419.583 265.782 419.54 266.518C419.456 265.785 419.415 265.047 419.415 264.31C419.372 263.574 419.375 262.837 419.423 262.102Z" fill="#263238"/>
<path d="M415.492 268.615C414.985 268.737 414.465 268.794 413.944 268.784C413.426 268.82 412.906 268.785 412.397 268.681C412.397 268.645 413.094 268.681 413.944 268.681C414.795 268.681 415.484 268.579 415.492 268.615Z" fill="#263238"/>
<path d="M417.567 268.586C417.567 268.586 417.515 268.733 417.442 268.888C417.369 269.042 417.339 269.189 417.303 269.189C417.266 269.189 417.244 269.02 417.303 268.836C417.361 268.652 417.545 268.556 417.567 268.586Z" fill="#263238"/>
<path d="M418.337 267.592C418.337 267.592 418.3 267.732 418.19 267.842C418.08 267.953 417.97 268.026 417.948 268.004C417.926 267.982 417.985 267.864 418.095 267.754C418.205 267.644 418.315 267.57 418.337 267.592Z" fill="#263238"/>
<path d="M419.467 267.136C419.467 267.172 419.32 267.172 419.166 267.231C419.012 267.29 418.902 267.371 418.873 267.341C418.843 267.312 418.931 267.172 419.122 267.106C419.313 267.04 419.467 267.099 419.467 267.136Z" fill="#263238"/>
<path d="M420.244 266.915C420.244 266.915 420.2 267.003 420.112 267.04C420.024 267.077 419.943 267.077 419.928 267.04C419.914 267.003 419.98 266.952 420.068 266.915C420.156 266.878 420.237 266.878 420.244 266.915Z" fill="#263238"/>
<path d="M455.722 265.774L434.771 154.417L405.65 158.87L407.718 264.722L424.218 265.068L421.476 172.722L440.036 265.774H455.722Z" fill="#455A64"/>
<path d="M437.991 165.067L404.705 163.824L405.651 133.331L401.287 138.328L392.385 130.593L402.175 117.205C403.434 115.498 405.021 114.062 406.842 112.981C408.663 111.901 410.682 111.197 412.779 110.912C414.018 110.743 414.979 110.655 415.58 110.581C419.114 111.704 422.907 111.704 426.441 110.581C427.975 110.633 429.492 110.927 430.936 111.45C433.658 112.416 436.115 114.012 438.108 116.109L449.027 130.924L439.692 139.02L434.375 134.325L437.991 165.067Z" fill="#263238"/>
<path d="M406.149 121.82C406.252 121.82 406.149 126.898 405.914 133.147C405.68 139.396 405.408 144.467 405.305 144.459C405.203 144.452 405.305 139.388 405.533 133.132C405.76 126.876 406.039 121.82 406.149 121.82Z" fill="#455A64"/>
<path d="M433.194 123.822C433.599 125.987 433.873 128.174 434.016 130.372C434.29 132.558 434.439 134.757 434.463 136.96C434.058 134.795 433.784 132.607 433.642 130.409C433.367 128.224 433.218 126.024 433.194 123.822Z" fill="#455A64"/>
<path d="M416.9 110.912C416.966 111.001 416.709 111.303 416.335 111.604C415.961 111.906 415.602 112.068 415.536 111.987C415.47 111.906 415.726 111.597 416.1 111.295C416.474 110.993 416.834 110.832 416.9 110.912Z" fill="#455A64"/>
<path d="M418.41 111.244C418.506 111.295 418.41 111.604 418.337 111.98C418.264 112.355 418.139 112.627 418.029 112.62C417.919 112.613 417.86 112.274 417.97 111.884C418.08 111.494 418.322 111.192 418.41 111.244Z" fill="#455A64"/>
<path d="M420.134 111.464C420.244 111.464 420.339 111.744 420.361 112.105C420.383 112.465 420.302 112.752 420.2 112.76C420.097 112.767 419.994 112.48 419.98 112.12C419.965 111.759 420.031 111.464 420.134 111.464Z" fill="#455A64"/>
<path d="M422.349 111.295C422.459 111.295 422.547 111.604 422.649 111.972C422.752 112.34 422.818 112.657 422.73 112.708C422.642 112.76 422.393 112.495 422.275 112.075C422.158 111.656 422.246 111.295 422.349 111.295Z" fill="#455A64"/>
<path d="M424.819 111.03C424.922 110.993 425.091 111.214 425.289 111.479C425.487 111.744 425.655 111.965 425.589 112.053C425.523 112.142 425.223 112.053 424.988 111.707C424.753 111.361 424.724 111.067 424.819 111.03Z" fill="#455A64"/>
<path d="M426.118 110.655C426.177 110.567 426.433 110.655 426.683 110.795C426.932 110.935 427.093 111.163 427.035 111.251C426.976 111.339 426.727 111.251 426.477 111.119C426.228 110.986 426.067 110.743 426.118 110.655Z" fill="#455A64"/>
<path d="M433.891 131.064C433.891 131.175 427.65 131.263 419.958 131.27C412.265 131.278 406.024 131.189 406.024 131.086C406.024 130.983 412.265 130.888 419.958 130.88C427.65 130.873 433.891 130.961 433.891 131.064Z" fill="#E4E4E4"/>
<path d="M434.133 133.132C434.133 133.243 427.893 133.331 420.2 133.338C412.507 133.346 406.267 133.257 406.267 133.154C406.267 133.051 412.507 132.956 420.2 132.956C427.893 132.956 434.133 133.044 434.133 133.132Z" fill="#E4E4E4"/>
<path d="M434.375 135.201C434.375 135.311 427.958 135.451 420.053 135.524C412.148 135.598 405.724 135.524 405.724 135.458C405.724 135.392 412.133 135.208 420.046 135.142C427.958 135.075 434.375 135.097 434.375 135.201Z" fill="#E4E4E4"/>
<path d="M443.417 123.093C443.075 123.579 442.676 124.021 442.229 124.411C441.452 125.147 440.337 126.214 439.061 127.296C437.785 128.378 436.59 129.305 435.703 129.945C435.25 130.32 434.758 130.643 434.236 130.91C434.638 130.473 435.082 130.079 435.563 129.732L438.848 127.001L442.075 124.212C442.488 123.799 442.937 123.425 443.417 123.093Z" fill="#E4E4E4"/>
<path d="M445.133 124.948C444.707 125.458 444.233 125.926 443.718 126.346C442.809 127.163 441.518 128.253 440.051 129.401C438.585 130.549 437.191 131.52 436.165 132.19C435.631 132.587 435.059 132.927 434.456 133.206C434.934 132.745 435.454 132.331 436.011 131.969C436.993 131.233 438.343 130.232 439.824 129.099C441.305 127.966 442.611 126.891 443.564 126.155C444.049 125.705 444.574 125.3 445.133 124.948Z" fill="#E4E4E4"/>
<path d="M445.961 126.692C444.39 128.298 442.727 129.812 440.982 131.226C439.318 132.735 437.57 134.148 435.746 135.458C437.323 133.857 438.987 132.346 440.733 130.932C442.398 129.425 444.144 128.01 445.961 126.692Z" fill="#E4E4E4"/>
<path d="M405.753 131.712C405.238 131.5 404.76 131.207 404.337 130.843C403.287 130.018 402.306 129.107 401.404 128.12C400.333 126.987 399.387 125.912 398.713 125.176C398.321 124.784 397.974 124.35 397.679 123.881C398.13 124.201 398.543 124.571 398.911 124.985C399.644 125.721 400.612 126.722 401.683 127.855C402.575 128.829 403.518 129.755 404.506 130.63C404.943 130.965 405.359 131.327 405.753 131.712Z" fill="#E4E4E4"/>
<path d="M404.8 134.236C404.271 133.936 403.779 133.575 403.333 133.162C402.49 132.426 401.346 131.432 400.151 130.218C398.955 129.003 397.907 127.914 397.217 127.075C396.799 126.646 396.433 126.169 396.125 125.655C396.592 126.025 397.024 126.439 397.415 126.891C398.149 127.679 399.249 128.768 400.444 129.945C401.639 131.123 402.747 132.153 403.546 132.889C404.01 133.292 404.431 133.744 404.8 134.236Z" fill="#E4E4E4"/>
<path d="M403.788 136.032C403.305 135.664 402.858 135.25 402.453 134.796C401.661 134.008 400.561 132.926 399.314 131.756C398.068 130.586 396.909 129.548 396.066 128.812C395.588 128.439 395.144 128.026 394.738 127.576C395.28 127.855 395.785 128.201 396.242 128.606C397.129 129.29 398.324 130.284 399.578 131.454C400.832 132.625 401.903 133.751 402.651 134.59C403.083 135.026 403.464 135.51 403.788 136.032Z" fill="#E4E4E4"/>
<path d="M437.924 163.662C437.924 163.765 430.525 163.662 421.402 163.433C412.28 163.205 404.888 162.933 404.888 162.83C404.888 162.727 412.287 162.83 421.41 163.051C430.532 163.272 437.924 163.551 437.924 163.662Z" fill="#455A64"/>
<path d="M512.233 227.252C513.185 227.73 514.03 228.395 514.719 229.208C515.408 230.021 515.927 230.966 516.245 231.984C516.862 234.03 517.008 236.189 516.67 238.299C516.127 242.384 513.737 246.469 511.177 249.693C507.804 246.623 507.107 241.361 506.924 238.653C506.638 234.406 508.684 226.538 512.233 227.237" fill="#FDAF36"/>
<path d="M515.042 256.537C514.829 255.363 514.931 254.154 515.335 253.032C515.74 251.909 516.433 250.915 517.345 250.149C518.263 249.404 519.318 248.849 520.451 248.515C521.584 248.182 522.771 248.077 523.945 248.206C524.494 248.207 525.036 248.33 525.533 248.566C526.03 248.801 526.469 249.143 526.819 249.567C527.083 250.013 527.223 250.521 527.223 251.039C527.223 251.558 527.083 252.066 526.819 252.511C526.284 253.394 525.525 254.118 524.619 254.609C521.613 256.427 518.364 257.634 515.02 256.552" fill="#FDAF36"/>
<path d="M510.4 269.005C510.418 268.722 510.462 268.441 510.532 268.166C510.657 267.577 510.811 266.812 510.994 265.899C511.424 263.377 512.259 260.941 513.466 258.687C514.72 256.436 516.547 254.559 518.76 253.248C519.433 252.862 520.149 252.561 520.894 252.35C521.096 252.286 521.302 252.237 521.51 252.202C521.65 252.202 521.723 252.202 521.723 252.202C520.73 252.52 519.771 252.94 518.863 253.454C516.726 254.791 514.96 256.65 513.73 258.856C512.546 261.089 511.696 263.484 511.207 265.966C510.98 266.915 510.796 267.688 510.657 268.21C510.592 268.482 510.507 268.748 510.4 269.005Z" fill="#263238"/>
<path d="M511.2 233.398C511.215 233.52 511.215 233.643 511.2 233.766C511.2 234.038 511.2 234.384 511.244 234.818C511.244 235.738 511.302 237.063 511.324 238.704C511.368 241.987 511.368 246.52 511.251 251.525C511.133 256.53 510.928 261.056 510.738 264.339C510.635 265.973 510.547 267.283 510.473 268.21C510.473 268.645 510.407 268.991 510.378 269.263C510.378 269.387 510.361 269.511 510.327 269.631C510.319 269.508 510.319 269.385 510.327 269.263C510.327 268.991 510.327 268.637 510.327 268.203C510.371 267.254 510.422 265.936 510.495 264.324C510.635 261.049 510.811 256.523 510.928 251.518C511.045 246.513 511.075 241.95 511.082 238.704C511.082 237.092 511.082 235.76 511.082 234.818C511.082 234.384 511.082 234.038 511.082 233.766C511.111 233.64 511.15 233.517 511.2 233.398Z" fill="#263238"/>
<path d="M509.058 258.9C508.692 256.408 507.739 254.04 506.279 251.992C504.819 249.944 502.893 248.275 500.661 247.124C499.525 246.55 498.036 246.167 497.075 246.999C496.115 247.83 496.298 249.383 496.738 250.583C497.699 253.074 499.374 255.223 501.551 256.76C503.728 258.296 506.309 259.151 508.97 259.216" fill="#FDAF36"/>
<path d="M501.145 251.054C501.4 251.141 501.645 251.252 501.878 251.385C502.157 251.524 502.429 251.676 502.692 251.842C502.993 252.04 503.367 252.239 503.726 252.519C504.137 252.808 504.531 253.12 504.907 253.454C505.349 253.823 505.767 254.219 506.161 254.639C508.002 256.558 509.342 258.904 510.062 261.469C510.214 262.024 510.337 262.586 510.429 263.154C510.519 263.641 510.577 264.132 510.605 264.626C510.642 265.037 510.654 265.45 510.642 265.863C510.645 266.175 510.63 266.487 510.598 266.797C510.592 267.065 510.558 267.332 510.495 267.592C510.429 267.592 510.568 266.451 510.4 264.648C510.356 264.154 510.285 263.662 510.187 263.176C510.087 262.618 509.957 262.065 509.798 261.52C509.421 260.274 508.909 259.072 508.273 257.936C507.616 256.813 506.842 255.765 505.963 254.808C505.58 254.388 505.173 253.99 504.746 253.615C504.38 253.282 503.999 252.968 503.602 252.673C502.142 251.606 501.116 251.113 501.145 251.054Z" fill="#263238"/>
<path d="M401.133 103.759L400.657 103.692L399.19 103.479L393.675 102.632H393.749C391.779 103.994 389.477 104.793 387.09 104.944C384.86 105.081 382.632 104.653 380.61 103.7C378.588 102.746 376.837 101.298 375.519 99.4871C374.201 97.6766 373.359 95.5624 373.068 93.3392C372.778 91.1159 373.05 88.8552 373.859 86.765C374.667 84.6749 375.987 82.8225 377.696 81.3784C379.405 79.9343 381.448 78.9449 383.638 78.5013C385.828 78.0578 388.094 78.1743 390.228 78.8401C392.361 79.5059 394.293 80.6997 395.846 82.3115C397.961 84.5056 399.256 87.3655 399.513 90.4075C399.728 92.7867 399.289 95.1795 398.244 97.3259V97.2376L400.371 102.095L400.921 103.354C401.038 103.633 401.097 103.773 401.089 103.766L401.031 103.648L400.869 103.317L400.275 102.051L398.075 97.3259V97.2818V97.2376C399.142 94.9947 399.547 92.4928 399.245 90.0262C398.943 87.5597 397.945 85.231 396.37 83.3141C394.794 81.3972 392.705 79.9718 390.35 79.2054C387.994 78.4391 385.47 78.3637 383.073 78.9882C380.677 79.6127 378.507 80.911 376.821 82.7305C375.134 84.55 374 86.815 373.553 89.2592C373.105 91.7034 373.362 94.225 374.293 96.5276C375.225 98.8302 376.792 100.818 378.811 102.257C380.969 103.797 383.543 104.641 386.191 104.675C388.839 104.709 391.435 103.933 393.631 102.448H393.668L399.087 103.413L400.554 103.678L400.935 103.751L401.133 103.759Z" fill="#263238"/>
<path d="M387.735 92.8398C387.735 93.0349 387.727 93.2375 387.712 93.4476C387.712 93.6427 387.712 93.8454 387.712 94.0555C387.111 94.0555 386.495 94.0555 385.863 94.0555C385.232 94.0555 384.608 94.0555 383.992 94.0555C383.977 93.4401 383.962 92.8172 383.947 92.1869C383.932 91.5565 383.917 90.9411 383.902 90.3408C385.345 90.2207 386.382 90.0556 387.013 89.8455C387.66 89.6203 387.983 89.3051 387.983 88.8999C387.983 88.5547 387.795 88.2845 387.419 88.0894C387.043 87.8793 386.54 87.7517 385.908 87.7067C385.292 87.6466 384.601 87.6842 383.834 87.8192C383.082 87.9393 382.323 88.1494 381.557 88.4496C381.557 87.8192 381.557 87.1889 381.557 86.5585C381.557 85.9131 381.557 85.2752 381.557 84.6448C383.571 84.1345 385.345 83.9544 386.878 84.1045C388.426 84.2546 389.629 84.7049 390.486 85.4553C391.358 86.1908 391.794 87.1964 391.794 88.4721C391.794 89.2676 391.621 89.9505 391.275 90.5209C390.929 91.0762 390.448 91.5415 389.832 91.9167C389.231 92.2919 388.532 92.5996 387.735 92.8398ZM385.863 99.9315C385.427 99.9315 385.022 99.8265 384.646 99.6163C384.285 99.4062 383.999 99.121 383.789 98.7608C383.578 98.4006 383.473 98.0104 383.473 97.5901C383.473 97.1699 383.578 96.7871 383.789 96.4419C383.999 96.0817 384.285 95.7965 384.646 95.5864C385.022 95.3763 385.427 95.2712 385.863 95.2712C386.299 95.2712 386.69 95.3763 387.036 95.5864C387.397 95.7965 387.682 96.0817 387.893 96.4419C388.118 96.7871 388.231 97.1699 388.231 97.5901C388.231 98.0104 388.118 98.4006 387.893 98.7608C387.682 99.121 387.397 99.4062 387.036 99.6163C386.69 99.8265 386.299 99.9315 385.863 99.9315Z" fill="#FDAF36"/>
</svg>
