<svg width="20" height="20" viewBox="0 0 20 20" fill="none" xmlns="http://www.w3.org/2000/svg">
<g clip-path="url(#clip0_2335_1820)">
<path d="M10 3.53003C4.4775 3.53003 0 6.4267 0 9.99836C0 13.5725 4.4775 16.47 10 16.47C15.5225 16.47 20 13.5734 20 9.99836C20 6.42336 15.5225 3.53003 10 3.53003ZM10 13.6934C9.17833 13.6934 8.50833 12.075 8.46667 10.0392C9.48694 10.1285 10.5131 10.1285 11.5333 10.0392C11.4917 12.0742 10.8217 13.6934 10 13.6934ZM8.5675 8.42336C8.79083 6.9842 9.34833 5.96253 10 5.96253C10.6517 5.96253 11.2083 6.9842 11.4325 8.42336C10.4794 8.50799 9.52063 8.50799 8.5675 8.42336ZM10 4.46503C8.9275 4.46503 8.0125 6.0717 7.675 8.3142C5.64167 7.99753 4.2225 7.2742 4.2225 6.4342C4.2225 5.30086 6.80917 4.38336 10 4.38336C13.1917 4.38336 15.7775 5.3017 15.7775 6.4342C15.7775 7.2742 14.3583 7.99753 12.325 8.3142C11.9875 6.07253 11.0725 4.46586 10 4.46586V4.46503ZM1.43333 9.7567C1.43333 8.66086 1.85583 7.6317 2.59 6.74836C2.5825 6.81003 2.5775 6.87336 2.5775 6.9367C2.5775 8.31753 4.64833 9.49503 7.53833 9.92836C7.53583 10.0284 7.53583 10.13 7.53583 10.2317C7.53583 12.8067 8.2575 14.9859 9.255 15.7259C4.87167 15.4617 1.43333 12.89 1.43333 9.7567ZM10.745 15.7259C11.7425 14.9859 12.4642 12.8059 12.4642 10.2317C12.4642 10.1292 12.4625 10.0292 12.4617 9.9292C15.35 9.49586 17.4225 8.3192 17.4225 6.9367C17.4225 6.87336 17.4175 6.81003 17.41 6.74836C18.1442 7.6342 18.5658 8.66086 18.5658 9.7567C18.5658 12.89 15.1283 15.4617 10.745 15.7259Z" fill="#FDAF36"/>
</g>
<defs>
<clipPath id="clip0_2335_1820">
<rect width="20" height="20" fill="white"/>
</clipPath>
</defs>
</svg>
