<svg width="20" height="20" viewBox="0 0 20 20" fill="none" xmlns="http://www.w3.org/2000/svg">
<path d="M4.16667 4.16675H7.5M5 11.2501H8.33333M12.5 4.16675H15.8333M11.6667 11.2501H15M13.3333 9.58341V12.9167M5.16667 15.8334H14.8333C15.7667 15.8334 16.2335 15.8334 16.59 15.6517C16.9036 15.492 17.1586 15.237 17.3183 14.9234C17.5 14.5669 17.5 14.1002 17.5 13.1667V9.33341C17.5 8.4 17.5 7.93328 17.3183 7.57676C17.1586 7.26316 16.9036 7.00819 16.59 6.84841C16.2335 6.66675 15.7667 6.66675 14.8333 6.66675H5.16667C4.23325 6.66675 3.76653 6.66675 3.41002 6.84841C3.09641 7.00819 2.84144 7.26316 2.68166 7.57676C2.5 7.93328 2.5 8.4 2.5 9.33341V13.1667C2.5 14.1002 2.5 14.5669 2.68166 14.9234C2.84144 15.237 3.09641 15.492 3.41002 15.6517C3.76653 15.8334 4.23324 15.8334 5.16667 15.8334Z" stroke="#FDAF36" stroke-width="1.2" stroke-linecap="round" stroke-linejoin="round"/>
</svg>
