<svg width="20" height="20" viewBox="0 0 20 20" fill="none" xmlns="http://www.w3.org/2000/svg">
<g clip-path="url(#clip0_2335_1793)">
<path d="M9.9924 0.140381C4.56166 0.140381 0.132812 4.56922 0.132812 9.99996C0.132812 15.4307 4.56166 19.8595 9.9924 19.8595C15.4231 19.8595 19.852 15.4307 19.852 9.99996C19.8482 4.56922 15.4193 0.140381 9.9924 0.140381ZM9.9924 18.721C5.18784 18.721 1.27133 14.8045 1.27133 9.99996C1.27133 5.19541 5.18784 1.2789 9.9924 1.2789C14.797 1.2789 18.7135 5.19541 18.7135 9.99996C18.7135 14.8045 14.7932 18.721 9.9924 18.721Z" fill="#FDAF36"/>
<path d="M7.16891 16.6642C4.57688 15.5598 2.75525 12.9868 2.75525 10C2.75525 9.24102 2.8729 8.50857 3.09301 7.81787L7.16891 16.6642Z" fill="#FDAF36"/>
<path d="M11.9999 16.9525C11.3624 17.1385 10.6868 17.2372 9.98855 17.2372C9.29026 17.2372 8.61853 17.1385 7.98096 16.9525L9.98855 12.2656L11.9999 16.9525Z" fill="#FDAF36"/>
<path d="M16.8918 7.82153C17.1119 8.50844 17.2296 9.24089 17.2296 9.9999C17.2296 12.9866 15.4042 15.5597 12.8159 16.6602L16.8918 7.82153Z" fill="#FDAF36"/>
<path d="M13.6394 3.75317C14.5237 4.2731 15.2865 4.97139 15.8823 5.80251L12.277 13.4647L11.0626 10.5388H8.92215L7.70773 13.4647L4.10242 5.80251C4.69824 4.97139 5.46105 4.2693 6.3453 3.75317L8.87282 9.6545H11.1119L13.6394 3.75317Z" fill="#FDAF36"/>
<path d="M9.99242 2.7627C10.6983 2.7627 11.3852 2.86516 12.0304 3.05492L9.99242 7.96194L7.95447 3.05492C8.59963 2.86516 9.28274 2.7627 9.99242 2.7627Z" fill="#FDAF36"/>
</g>
<defs>
<clipPath id="clip0_2335_1793">
<rect width="20" height="20" fill="white"/>
</clipPath>
</defs>
</svg>
