<svg width="20" height="20" viewBox="0 0 20 20" fill="none" xmlns="http://www.w3.org/2000/svg">
<path fill-rule="evenodd" clip-rule="evenodd" d="M8.67001 18.6701C3.88764 18.6701 0 14.7824 0 10C0 5.21764 3.88764 1.32996 8.67001 1.32996C10.863 1.32996 12.921 2.12646 14.5243 3.5962C13.991 3.91155 13.4764 4.26085 12.9814 4.63894C11.7665 3.65886 10.2559 3.11924 8.67001 3.11924C4.87991 3.11924 1.78928 6.20991 1.78928 10C1.78928 13.7901 4.87991 16.8808 8.67001 16.8808C13.9436 16.8808 17.0745 11.2437 14.8063 6.86085C15.1501 6.54117 15.5039 6.23131 15.8671 5.93179C15.9743 5.84335 16.0825 5.75574 16.1914 5.669C16.9502 6.97952 17.3402 8.4654 17.3402 9.99996C17.3401 14.7824 13.4524 18.6701 8.67001 18.6701Z" fill="#C5C8D3"/>
<path fill-rule="evenodd" clip-rule="evenodd" d="M8.89779 14.457C8.80022 14.457 8.71887 14.392 8.68635 14.3106C8.67011 14.2781 7.27114 10.6669 5.10769 9.30052C4.68475 9.04026 4.35949 8.76372 4.48959 8.14557C4.6197 7.54372 5.0264 7.20212 5.75836 7.03944C7.05965 6.7629 8.45857 8.77996 8.97913 9.60959C10.8009 6.95815 14.4447 2.79387 19.7475 2.30588C20.0034 2.27589 20.098 2.65509 19.8614 2.76135C19.7801 2.79387 12.1998 6.25871 9.12548 14.3269C9.07671 14.4082 8.99537 14.457 8.89779 14.457Z" fill="#FDAF36"/>
</svg>
