<svg width="36" height="36" viewBox="0 0 36 36" fill="none" xmlns="http://www.w3.org/2000/svg">
<g clip-path="url(#clip0_2334_1924)">
<path d="M18 20.1094C18.5825 20.1094 19.0547 19.6372 19.0547 19.0547C19.0547 18.4722 18.5825 18 18 18C17.4175 18 16.9453 18.4722 16.9453 19.0547C16.9453 19.6372 17.4175 20.1094 18 20.1094Z" fill="url(#paint0_linear_2334_1924)"/>
<path d="M18 0C8.08889 0 0 8.08938 0 18C0 27.9113 8.08938 36 18 36C27.9113 36 36 27.9106 36 18C36 8.08889 27.9106 0 18 0ZM18 4.28906C24.843 4.28906 30.531 9.32822 31.5487 15.8906H27.8911C25.572 15.8906 23.3687 14.96 21.8461 13.3375C19.7648 11.1194 16.2354 11.1187 14.1539 13.3374C12.6313 14.96 10.428 15.8906 8.10886 15.8906H4.45134C5.46898 9.32822 11.157 4.28906 18 4.28906ZM18 22.2188C16.2554 22.2188 14.8359 20.7994 14.8359 19.0547C14.8359 17.31 16.2554 15.8906 18 15.8906C19.7447 15.8906 21.1641 17.31 21.1641 19.0547C21.1641 20.7994 19.7447 22.2188 18 22.2188ZM5.23266 22.999C6.43992 22.5254 7.31166 22.2188 8.50781 22.2188C12.3531 22.2188 15.3435 25.6454 14.7643 29.4954H14.7618C14.6758 30.0847 14.5065 30.6557 14.2623 31.1931C10.1308 30.021 6.78734 26.9559 5.23266 22.999ZM21.7386 31.1928C21.4877 30.6412 21.3221 30.0703 21.2382 29.4954H21.2357C20.5608 25.0091 24.7022 21.3074 28.995 22.3983C29.4475 22.5134 30.0138 22.7035 30.7673 22.9991C29.2127 26.9556 25.8697 30.0206 21.7386 31.1928Z" fill="url(#paint1_linear_2334_1924)"/>
</g>
<defs>
<linearGradient id="paint0_linear_2334_1924" x1="16.1836" y1="19.2891" x2="19.3918" y2="19.465" gradientUnits="userSpaceOnUse">
<stop stop-color="#D08B20"/>
<stop offset="1" stop-color="#FFC872"/>
</linearGradient>
<linearGradient id="paint1_linear_2334_1924" x1="-13" y1="22" x2="41.7532" y2="25.0021" gradientUnits="userSpaceOnUse">
<stop stop-color="#D08B20"/>
<stop offset="1" stop-color="#FFC872"/>
</linearGradient>
<clipPath id="clip0_2334_1924">
<rect width="36" height="36" fill="white"/>
</clipPath>
</defs>
</svg>
