<svg width="197" height="42" viewBox="0 0 197 42" fill="none" xmlns="http://www.w3.org/2000/svg">
<g clip-path="url(#clip0_2334_1883)">
<path d="M18 23.1094C18.5825 23.1094 19.0547 22.6372 19.0547 22.0547C19.0547 21.4722 18.5825 21 18 21C17.4175 21 16.9453 21.4722 16.9453 22.0547C16.9453 22.6372 17.4175 23.1094 18 23.1094Z" fill="url(#paint0_linear_2334_1883)"/>
<path d="M18 3C8.08889 3 0 11.0894 0 21C0 30.9113 8.08938 39 18 39C27.9113 39 36 30.9106 36 21C36 11.0889 27.9106 3 18 3ZM18 7.28906C24.843 7.28906 30.531 12.3282 31.5487 18.8906H27.8911C25.572 18.8906 23.3687 17.96 21.8461 16.3375C19.7648 14.1194 16.2354 14.1187 14.1539 16.3374C12.6313 17.96 10.428 18.8906 8.10886 18.8906H4.45134C5.46898 12.3282 11.157 7.28906 18 7.28906ZM18 25.2188C16.2554 25.2188 14.8359 23.7994 14.8359 22.0547C14.8359 20.31 16.2554 18.8906 18 18.8906C19.7447 18.8906 21.1641 20.31 21.1641 22.0547C21.1641 23.7994 19.7447 25.2188 18 25.2188ZM5.23266 25.999C6.43992 25.5254 7.31166 25.2188 8.50781 25.2188C12.3531 25.2188 15.3435 28.6454 14.7643 32.4954H14.7618C14.6758 33.0847 14.5065 33.6557 14.2623 34.1931C10.1308 33.021 6.78734 29.9559 5.23266 25.999ZM21.7386 34.1928C21.4877 33.6412 21.3221 33.0703 21.2382 32.4954H21.2357C20.5608 28.0091 24.7022 24.3074 28.995 25.3983C29.4475 25.5134 30.0138 25.7035 30.7673 25.9991C29.2127 29.9556 25.8697 33.0206 21.7386 34.1928Z" fill="url(#paint1_linear_2334_1883)"/>
</g>
<path d="M49.0114 17.5V5.86364H56.8523V7.89205H51.4716V10.6648H56.4489V12.6932H51.4716V15.4716H56.875V17.5H49.0114ZM58.9682 17.5V5.86364H61.4285V15.4716H66.4171V17.5H58.9682ZM78.0203 9.9375H75.5316C75.4862 9.61553 75.3934 9.32955 75.2532 9.07955C75.1131 8.82576 74.9332 8.60985 74.7135 8.43182C74.4938 8.25379 74.24 8.11742 73.9521 8.02273C73.668 7.92803 73.3593 7.88068 73.026 7.88068C72.4237 7.88068 71.8991 8.0303 71.4521 8.32955C71.0051 8.625 70.6585 9.05682 70.4123 9.625C70.1661 10.1894 70.043 10.875 70.043 11.6818C70.043 12.5114 70.1661 13.2083 70.4123 13.7727C70.6623 14.3371 71.0108 14.7633 71.4578 15.0511C71.9048 15.339 72.4218 15.483 73.0089 15.483C73.3385 15.483 73.6434 15.4394 73.9237 15.3523C74.2078 15.2652 74.4597 15.1383 74.6794 14.9716C74.8991 14.8011 75.0809 14.5947 75.2248 14.3523C75.3726 14.1098 75.4748 13.8333 75.5316 13.5227L78.0203 13.5341C77.9559 14.0682 77.7949 14.5833 77.5373 15.0795C77.2835 15.572 76.9407 16.0133 76.5089 16.4034C76.0809 16.7898 75.5695 17.0966 74.9748 17.3239C74.3839 17.5473 73.7154 17.6591 72.9691 17.6591C71.9313 17.6591 71.0032 17.4242 70.1851 16.9545C69.3707 16.4848 68.7267 15.8049 68.2532 14.9148C67.7835 14.0246 67.5487 12.947 67.5487 11.6818C67.5487 10.4129 67.7873 9.33333 68.2646 8.44318C68.7419 7.55303 69.3896 6.875 70.2078 6.40909C71.026 5.93939 71.9464 5.70455 72.9691 5.70455C73.6434 5.70455 74.2684 5.79924 74.8441 5.98864C75.4237 6.17803 75.937 6.45455 76.3839 6.81818C76.8309 7.17803 77.1945 7.61932 77.4748 8.14205C77.7589 8.66477 77.9407 9.26326 78.0203 9.9375ZM81.7314 17.5H79.0951L83.1121 5.86364H86.2826L90.2939 17.5H87.6576L84.7428 8.52273H84.6519L81.7314 17.5ZM81.5666 12.9261H87.7939V14.8466H81.5666V12.9261ZM91.8545 17.5V5.86364H96.4454C97.3242 5.86364 98.0742 6.02083 98.6954 6.33523C99.3204 6.64583 99.7958 7.08712 100.122 7.65909C100.451 8.22727 100.616 8.89583 100.616 9.66477C100.616 10.4375 100.449 11.1023 100.116 11.6591C99.7825 12.2121 99.2996 12.6364 98.667 12.9318C98.0382 13.2273 97.2768 13.375 96.3829 13.375H93.309V11.3977H95.9852C96.4549 11.3977 96.845 11.3333 97.1556 11.2045C97.4662 11.0758 97.6973 10.8826 97.8488 10.625C98.0041 10.3674 98.0818 10.0473 98.0818 9.66477C98.0818 9.27841 98.0041 8.95265 97.8488 8.6875C97.6973 8.42235 97.4643 8.22159 97.1499 8.08523C96.8393 7.94508 96.4473 7.875 95.9738 7.875H94.3147V17.5H91.8545ZM98.1386 12.2045L101.031 17.5H98.3147L95.4852 12.2045H98.1386ZM106.378 17.5V5.86364H110.969C111.847 5.86364 112.597 6.02083 113.219 6.33523C113.844 6.64583 114.319 7.08712 114.645 7.65909C114.974 8.22727 115.139 8.89583 115.139 9.66477C115.139 10.4375 114.972 11.1023 114.639 11.6591C114.306 12.2121 113.823 12.6364 113.19 12.9318C112.561 13.2273 111.8 13.375 110.906 13.375H107.832V11.3977H110.508C110.978 11.3977 111.368 11.3333 111.679 11.2045C111.989 11.0758 112.22 10.8826 112.372 10.625C112.527 10.3674 112.605 10.0473 112.605 9.66477C112.605 9.27841 112.527 8.95265 112.372 8.6875C112.22 8.42235 111.987 8.22159 111.673 8.08523C111.362 7.94508 110.97 7.875 110.497 7.875H108.838V17.5H106.378ZM112.662 12.2045L115.554 17.5H112.838L110.008 12.2045H112.662ZM117.038 17.5V5.86364H124.879V7.89205H119.498V10.6648H124.475V12.6932H119.498V15.4716H124.901V17.5H117.038ZM136.727 5.86364V17.5H134.602L129.54 10.1761H129.455V17.5H126.994V5.86364H129.154L134.176 13.1818H134.279V5.86364H136.727ZM138.477 7.89205V5.86364H148.034V7.89205H144.471V17.5H142.039V7.89205H138.477ZM150.351 17.5H147.715L151.732 5.86364H154.903L158.914 17.5H156.278L153.363 8.52273H153.272L150.351 17.5ZM150.187 12.9261H156.414V14.8466H150.187V12.9261ZM160.474 17.5V5.86364H162.935V15.4716H167.923V17.5H160.474Z" fill="url(#paint2_linear_2334_1883)"/>
<path d="M49.0568 37.5V28.7727H54.2898V29.7102H50.1136V32.6591H53.8977V33.5966H50.1136V37.5H49.0568ZM58.0096 37.6534C57.5948 37.6534 57.2184 37.5753 56.8803 37.419C56.5422 37.2599 56.2738 37.0312 56.0749 36.733C55.876 36.4318 55.7766 36.0682 55.7766 35.642C55.7766 35.267 55.8505 34.9631 55.9982 34.7301C56.1459 34.4943 56.3434 34.3097 56.5905 34.1761C56.8377 34.0426 57.1104 33.9432 57.4087 33.8778C57.7098 33.8097 58.0124 33.7557 58.3164 33.7159C58.7141 33.6648 59.0365 33.6264 59.2837 33.6009C59.5337 33.5724 59.7155 33.5256 59.8292 33.4602C59.9456 33.3949 60.0039 33.2812 60.0039 33.1193V33.0852C60.0039 32.6648 59.8888 32.3381 59.6587 32.1051C59.4314 31.8722 59.0863 31.7557 58.6232 31.7557C58.1431 31.7557 57.7667 31.8608 57.4939 32.071C57.2212 32.2812 57.0294 32.5057 56.9187 32.7443L55.9641 32.4034C56.1346 32.0057 56.3618 31.696 56.6459 31.4744C56.9329 31.25 57.2454 31.0937 57.5834 31.0057C57.9243 30.9148 58.2596 30.8693 58.5891 30.8693C58.7993 30.8693 59.0408 30.8949 59.3135 30.946C59.5891 30.9943 59.8547 31.0952 60.1104 31.2486C60.3689 31.402 60.5834 31.6335 60.7539 31.9432C60.9243 32.2528 61.0096 32.6676 61.0096 33.1875V37.5H60.0039V36.6136H59.9527C59.8846 36.7557 59.7709 36.9077 59.6118 37.0696C59.4527 37.2315 59.2411 37.3693 58.9769 37.483C58.7127 37.5966 58.3902 37.6534 58.0096 37.6534ZM58.163 36.75C58.5607 36.75 58.8959 36.6719 59.1687 36.5156C59.4442 36.3594 59.6516 36.1577 59.7908 35.9105C59.9329 35.6634 60.0039 35.4034 60.0039 35.1307V34.2102C59.9613 34.2614 59.8675 34.3082 59.7226 34.3509C59.5806 34.3906 59.4158 34.4261 59.2283 34.4574C59.0437 34.4858 58.8633 34.5114 58.6871 34.5341C58.5138 34.554 58.3732 34.571 58.2652 34.5852C58.0039 34.6193 57.7596 34.6747 57.5323 34.7514C57.3079 34.8253 57.126 34.9375 56.9868 35.0881C56.8505 35.2358 56.7823 35.4375 56.7823 35.6932C56.7823 36.0426 56.9115 36.3068 57.1701 36.4858C57.4314 36.6619 57.7624 36.75 58.163 36.75ZM67.6015 32.4205L66.6981 32.6761C66.6413 32.5256 66.5575 32.3793 66.4467 32.2372C66.3387 32.0923 66.191 31.973 66.0035 31.8793C65.816 31.7855 65.5759 31.7386 65.2833 31.7386C64.8828 31.7386 64.5489 31.831 64.2819 32.0156C64.0177 32.1974 63.8856 32.429 63.8856 32.7102C63.8856 32.9602 63.9765 33.1577 64.1583 33.3026C64.3401 33.4474 64.6242 33.5682 65.0106 33.6648L65.9822 33.9034C66.5674 34.0455 67.0035 34.2628 67.2904 34.5554C67.5774 34.8452 67.7208 35.2187 67.7208 35.6761C67.7208 36.0511 67.6129 36.3864 67.397 36.6818C67.1839 36.9773 66.8856 37.2102 66.5021 37.3807C66.1186 37.5511 65.6725 37.6364 65.164 37.6364C64.4964 37.6364 63.9438 37.4915 63.5063 37.2017C63.0688 36.9119 62.7918 36.4886 62.6754 35.9318L63.6299 35.6932C63.7208 36.0455 63.8927 36.3097 64.1455 36.4858C64.4012 36.6619 64.735 36.75 65.147 36.75C65.6157 36.75 65.9879 36.6506 66.2634 36.4517C66.5418 36.25 66.6811 36.0085 66.6811 35.7273C66.6811 35.5 66.6015 35.3097 66.4424 35.1562C66.2833 35 66.039 34.8835 65.7095 34.8068L64.6186 34.5511C64.0191 34.4091 63.5788 34.1889 63.2975 33.8906C63.0191 33.5895 62.8799 33.2131 62.8799 32.7614C62.8799 32.392 62.9836 32.0653 63.191 31.7812C63.4012 31.4972 63.6867 31.2741 64.0475 31.1122C64.4112 30.9503 64.8231 30.8693 65.2833 30.8693C65.9311 30.8693 66.4396 31.0114 66.8089 31.2955C67.1811 31.5795 67.4453 31.9545 67.6015 32.4205ZM72.2013 30.9545V31.8068H68.8092V30.9545H72.2013ZM69.7979 29.3864H70.8035V35.625C70.8035 35.9091 70.8447 36.1222 70.9271 36.2642C71.0123 36.4034 71.1203 36.4972 71.251 36.5455C71.3845 36.5909 71.5251 36.6136 71.6729 36.6136C71.7837 36.6136 71.8746 36.608 71.9456 36.5966C72.0166 36.5824 72.0734 36.571 72.116 36.5625L72.3206 37.4659C72.2524 37.4915 72.1572 37.517 72.0351 37.5426C71.9129 37.571 71.7581 37.5852 71.5706 37.5852C71.2865 37.5852 71.0081 37.5241 70.7354 37.402C70.4655 37.2798 70.241 37.0938 70.0621 36.8438C69.8859 36.5938 69.7979 36.2784 69.7979 35.8977V29.3864ZM79.2552 37.6534C78.8404 37.6534 78.464 37.5753 78.1259 37.419C77.7879 37.2599 77.5194 37.0312 77.3205 36.733C77.1217 36.4318 77.0222 36.0682 77.0222 35.642C77.0222 35.267 77.0961 34.9631 77.2438 34.7301C77.3915 34.4943 77.589 34.3097 77.8362 34.1761C78.0833 34.0426 78.356 33.9432 78.6543 33.8778C78.9555 33.8097 79.258 33.7557 79.562 33.7159C79.9597 33.6648 80.2822 33.6264 80.5293 33.6009C80.7793 33.5724 80.9612 33.5256 81.0748 33.4602C81.1913 33.3949 81.2495 33.2812 81.2495 33.1193V33.0852C81.2495 32.6648 81.1344 32.3381 80.9043 32.1051C80.6771 31.8722 80.3319 31.7557 79.8688 31.7557C79.3887 31.7557 79.0123 31.8608 78.7396 32.071C78.4668 32.2812 78.2751 32.5057 78.1643 32.7443L77.2097 32.4034C77.3802 32.0057 77.6075 31.696 77.8915 31.4744C78.1785 31.25 78.491 31.0937 78.829 31.0057C79.17 30.9148 79.5052 30.8693 79.8347 30.8693C80.045 30.8693 80.2864 30.8949 80.5592 30.946C80.8347 30.9943 81.1004 31.0952 81.356 31.2486C81.6146 31.402 81.829 31.6335 81.9995 31.9432C82.17 32.2528 82.2552 32.6676 82.2552 33.1875V37.5H81.2495V36.6136H81.1984C81.1302 36.7557 81.0165 36.9077 80.8575 37.0696C80.6984 37.2315 80.4867 37.3693 80.2225 37.483C79.9583 37.5966 79.6359 37.6534 79.2552 37.6534ZM79.4086 36.75C79.8063 36.75 80.1415 36.6719 80.4143 36.5156C80.6898 36.3594 80.8972 36.1577 81.0364 35.9105C81.1785 35.6634 81.2495 35.4034 81.2495 35.1307V34.2102C81.2069 34.2614 81.1131 34.3082 80.9683 34.3509C80.8262 34.3906 80.6614 34.4261 80.4739 34.4574C80.2893 34.4858 80.1089 34.5114 79.9327 34.5341C79.7594 34.554 79.6188 34.571 79.5109 34.5852C79.2495 34.6193 79.0052 34.6747 78.7779 34.7514C78.5535 34.8253 78.3717 34.9375 78.2325 35.0881C78.0961 35.2358 78.0279 35.4375 78.0279 35.6932C78.0279 36.0426 78.1572 36.3068 78.4157 36.4858C78.6771 36.6619 79.008 36.75 79.4086 36.75ZM85.2165 33.5625V37.5H84.2108V30.9545H85.1824V31.9773H85.2676C85.421 31.6449 85.654 31.3778 85.9665 31.1761C86.279 30.9716 86.6824 30.8693 87.1767 30.8693C87.6199 30.8693 88.0076 30.9602 88.34 31.142C88.6724 31.321 88.9309 31.5938 89.1156 31.9602C89.3003 32.3239 89.3926 32.7841 89.3926 33.3409V37.5H88.3869V33.4091C88.3869 32.8949 88.2534 32.4943 87.9863 32.2074C87.7193 31.9176 87.3528 31.7727 86.8869 31.7727C86.5659 31.7727 86.279 31.8423 86.0261 31.9815C85.7761 32.1207 85.5787 32.3239 85.4338 32.5909C85.2889 32.858 85.2165 33.1818 85.2165 33.5625ZM93.8219 37.6364C93.2764 37.6364 92.7949 37.4986 92.3773 37.223C91.9597 36.9446 91.633 36.5526 91.3972 36.0469C91.1614 35.5384 91.0435 34.9375 91.0435 34.2443C91.0435 33.5568 91.1614 32.9602 91.3972 32.4545C91.633 31.9489 91.9611 31.5582 92.3815 31.2827C92.802 31.0071 93.2878 30.8693 93.8389 30.8693C94.2651 30.8693 94.6017 30.9403 94.8489 31.0824C95.0989 31.2216 95.2892 31.3807 95.4199 31.5597C95.5534 31.7358 95.6571 31.8807 95.731 31.9943H95.8162V28.7727H96.8219V37.5H95.8503V36.4943H95.731C95.6571 36.6136 95.552 36.7642 95.4156 36.946C95.2793 37.125 95.0847 37.2855 94.8318 37.4276C94.579 37.5668 94.2423 37.6364 93.8219 37.6364ZM93.9583 36.733C94.3617 36.733 94.7026 36.6278 94.981 36.4176C95.2594 36.2045 95.471 35.9105 95.6159 35.5355C95.7608 35.1577 95.8333 34.7216 95.8333 34.2273C95.8333 33.7386 95.7622 33.3111 95.6202 32.9446C95.4781 32.5753 95.2679 32.2884 94.9895 32.0838C94.7111 31.8764 94.3673 31.7727 93.9583 31.7727C93.5321 31.7727 93.177 31.8821 92.8929 32.1009C92.6117 32.3168 92.4 32.6108 92.258 32.983C92.1188 33.3523 92.0492 33.767 92.0492 34.2273C92.0492 34.6932 92.1202 35.1165 92.2622 35.4972C92.4071 35.875 92.6202 36.1761 92.9014 36.4006C93.1855 36.6222 93.5378 36.733 93.9583 36.733ZM105.078 37.6364C104.464 37.6364 103.935 37.4915 103.492 37.2017C103.049 36.9119 102.708 36.5128 102.47 36.0043C102.231 35.4957 102.112 34.9148 102.112 34.2614C102.112 33.5966 102.234 33.0099 102.478 32.5014C102.725 31.9901 103.069 31.5909 103.509 31.304C103.953 31.0142 104.47 30.8693 105.06 30.8693C105.521 30.8693 105.935 30.9545 106.305 31.125C106.674 31.2955 106.977 31.5341 107.212 31.8409C107.448 32.1477 107.595 32.5057 107.651 32.9148H106.646C106.569 32.6165 106.399 32.3523 106.134 32.1222C105.873 31.8892 105.521 31.7727 105.078 31.7727C104.685 31.7727 104.342 31.875 104.046 32.0795C103.754 32.2812 103.525 32.5668 103.36 32.9361C103.198 33.3026 103.117 33.733 103.117 34.2273C103.117 34.733 103.197 35.1733 103.356 35.5483C103.518 35.9233 103.745 36.2145 104.038 36.4219C104.333 36.6293 104.68 36.733 105.078 36.733C105.339 36.733 105.576 36.6875 105.789 36.5966C106.002 36.5057 106.183 36.375 106.33 36.2045C106.478 36.0341 106.583 35.8295 106.646 35.5909H107.651C107.595 35.9773 107.454 36.3253 107.23 36.6349C107.008 36.9418 106.714 37.1861 106.347 37.3679C105.984 37.5469 105.56 37.6364 105.078 37.6364ZM111.901 37.6364C111.31 37.6364 110.791 37.4957 110.345 37.2145C109.902 36.9332 109.555 36.5398 109.305 36.0341C109.058 35.5284 108.935 34.9375 108.935 34.2614C108.935 33.5795 109.058 32.9844 109.305 32.4759C109.555 31.9673 109.902 31.5724 110.345 31.2912C110.791 31.0099 111.31 30.8693 111.901 30.8693C112.492 30.8693 113.009 31.0099 113.452 31.2912C113.898 31.5724 114.244 31.9673 114.492 32.4759C114.742 32.9844 114.867 33.5795 114.867 34.2614C114.867 34.9375 114.742 35.5284 114.492 36.0341C114.244 36.5398 113.898 36.9332 113.452 37.2145C113.009 37.4957 112.492 37.6364 111.901 37.6364ZM111.901 36.733C112.35 36.733 112.719 36.6179 113.009 36.3878C113.298 36.1577 113.513 35.8551 113.652 35.4801C113.791 35.1051 113.861 34.6989 113.861 34.2614C113.861 33.8239 113.791 33.4162 113.652 33.0384C113.513 32.6605 113.298 32.3551 113.009 32.1222C112.719 31.8892 112.35 31.7727 111.901 31.7727C111.452 31.7727 111.082 31.8892 110.793 32.1222C110.503 32.3551 110.288 32.6605 110.149 33.0384C110.01 33.4162 109.94 33.8239 109.94 34.2614C109.94 34.6989 110.01 35.1051 110.149 35.4801C110.288 35.8551 110.503 36.1577 110.793 36.3878C111.082 36.6179 111.452 36.733 111.901 36.733ZM117.527 33.5625V37.5H116.522V30.9545H117.493V31.9773H117.579C117.732 31.6449 117.965 31.3778 118.277 31.1761C118.59 30.9716 118.993 30.8693 119.488 30.8693C119.931 30.8693 120.319 30.9602 120.651 31.142C120.983 31.321 121.242 31.5938 121.427 31.9602C121.611 32.3239 121.704 32.7841 121.704 33.3409V37.5H120.698V33.4091C120.698 32.8949 120.564 32.4943 120.297 32.2074C120.03 31.9176 119.664 31.7727 119.198 31.7727C118.877 31.7727 118.59 31.8423 118.337 31.9815C118.087 32.1207 117.89 32.3239 117.745 32.5909C117.6 32.858 117.527 33.1818 117.527 33.5625ZM128.779 30.9545L126.359 37.5H125.336L122.915 30.9545H124.006L125.813 36.1705H125.881L127.688 30.9545H128.779ZM132.736 37.6364C132.106 37.6364 131.562 37.4972 131.104 37.2188C130.65 36.9375 130.299 36.5455 130.052 36.0426C129.808 35.5369 129.685 34.9489 129.685 34.2784C129.685 33.608 129.808 33.017 130.052 32.5057C130.299 31.9915 130.643 31.5909 131.083 31.304C131.526 31.0142 132.043 30.8693 132.634 30.8693C132.975 30.8693 133.312 30.9261 133.644 31.0398C133.977 31.1534 134.279 31.3381 134.552 31.5938C134.825 31.8466 135.042 32.1818 135.204 32.5994C135.366 33.017 135.447 33.5312 135.447 34.142V34.5682H130.401V33.6989H134.424C134.424 33.3295 134.35 33 134.202 32.7102C134.058 32.4205 133.85 32.1918 133.58 32.0241C133.313 31.8565 132.998 31.7727 132.634 31.7727C132.234 31.7727 131.887 31.8722 131.594 32.071C131.305 32.267 131.082 32.5227 130.925 32.8381C130.769 33.1534 130.691 33.4915 130.691 33.8523V34.4318C130.691 34.9261 130.776 35.3452 130.947 35.6889C131.12 36.0298 131.36 36.2898 131.667 36.4688C131.974 36.6449 132.33 36.733 132.736 36.733C133.001 36.733 133.239 36.696 133.452 36.6222C133.668 36.5455 133.854 36.4318 134.011 36.2812C134.167 36.1278 134.288 35.9375 134.373 35.7102L135.344 35.983C135.242 36.3125 135.07 36.6023 134.829 36.8523C134.587 37.0994 134.289 37.2926 133.934 37.4318C133.579 37.5682 133.18 37.6364 132.736 37.6364ZM138.102 33.5625V37.5H137.097V30.9545H138.068V31.9773H138.153C138.307 31.6449 138.54 31.3778 138.852 31.1761C139.165 30.9716 139.568 30.8693 140.062 30.8693C140.506 30.8693 140.893 30.9602 141.226 31.142C141.558 31.321 141.817 31.5938 142.001 31.9602C142.186 32.3239 142.278 32.7841 142.278 33.3409V37.5H141.273V33.4091C141.273 32.8949 141.139 32.4943 140.872 32.2074C140.605 31.9176 140.239 31.7727 139.773 31.7727C139.452 31.7727 139.165 31.8423 138.912 31.9815C138.662 32.1207 138.464 32.3239 138.32 32.5909C138.175 32.858 138.102 33.1818 138.102 33.5625ZM144.236 37.5V30.9545H145.242V37.5H144.236ZM144.747 29.8636C144.551 29.8636 144.382 29.7969 144.24 29.6634C144.101 29.5298 144.032 29.3693 144.032 29.1818C144.032 28.9943 144.101 28.8338 144.24 28.7003C144.382 28.5668 144.551 28.5 144.747 28.5C144.943 28.5 145.111 28.5668 145.25 28.7003C145.392 28.8338 145.463 28.9943 145.463 29.1818C145.463 29.3693 145.392 29.5298 145.25 29.6634C145.111 29.7969 144.943 29.8636 144.747 29.8636ZM149.948 37.6364C149.317 37.6364 148.773 37.4972 148.316 37.2188C147.861 36.9375 147.511 36.5455 147.263 36.0426C147.019 35.5369 146.897 34.9489 146.897 34.2784C146.897 33.608 147.019 33.017 147.263 32.5057C147.511 31.9915 147.854 31.5909 148.295 31.304C148.738 31.0142 149.255 30.8693 149.846 30.8693C150.187 30.8693 150.523 30.9261 150.856 31.0398C151.188 31.1534 151.491 31.3381 151.763 31.5938C152.036 31.8466 152.253 32.1818 152.415 32.5994C152.577 33.017 152.658 33.5312 152.658 34.142V34.5682H147.613V33.6989H151.636C151.636 33.3295 151.562 33 151.414 32.7102C151.269 32.4205 151.062 32.1918 150.792 32.0241C150.525 31.8565 150.209 31.7727 149.846 31.7727C149.445 31.7727 149.099 31.8722 148.806 32.071C148.516 32.267 148.293 32.5227 148.137 32.8381C147.981 33.1534 147.903 33.4915 147.903 33.8523V34.4318C147.903 34.9261 147.988 35.3452 148.158 35.6889C148.332 36.0298 148.572 36.2898 148.878 36.4688C149.185 36.6449 149.542 36.733 149.948 36.733C150.212 36.733 150.451 36.696 150.664 36.6222C150.88 36.5455 151.066 36.4318 151.222 36.2812C151.378 36.1278 151.499 35.9375 151.584 35.7102L152.556 35.983C152.454 36.3125 152.282 36.6023 152.04 36.8523C151.799 37.0994 151.501 37.2926 151.145 37.4318C150.79 37.5682 150.391 37.6364 149.948 37.6364ZM155.314 33.5625V37.5H154.308V30.9545H155.28V31.9773H155.365C155.518 31.6449 155.751 31.3778 156.064 31.1761C156.376 30.9716 156.78 30.8693 157.274 30.8693C157.717 30.8693 158.105 30.9602 158.437 31.142C158.77 31.321 159.028 31.5938 159.213 31.9602C159.398 32.3239 159.49 32.7841 159.49 33.3409V37.5H158.484V33.4091C158.484 32.8949 158.351 32.4943 158.084 32.2074C157.817 31.9176 157.45 31.7727 156.984 31.7727C156.663 31.7727 156.376 31.8423 156.123 31.9815C155.873 32.1207 155.676 32.3239 155.531 32.5909C155.386 32.858 155.314 33.1818 155.314 33.5625ZM164.294 30.9545V31.8068H160.902V30.9545H164.294ZM161.891 29.3864H162.897V35.625C162.897 35.9091 162.938 36.1222 163.02 36.2642C163.105 36.4034 163.213 36.4972 163.344 36.5455C163.477 36.5909 163.618 36.6136 163.766 36.6136C163.877 36.6136 163.968 36.608 164.039 36.5966C164.11 36.5824 164.166 36.571 164.209 36.5625L164.414 37.4659C164.345 37.4915 164.25 37.517 164.128 37.5426C164.006 37.571 163.851 37.5852 163.664 37.5852C163.379 37.5852 163.101 37.5241 162.828 37.402C162.558 37.2798 162.334 37.0938 162.155 36.8438C161.979 36.5938 161.891 36.2784 161.891 35.8977V29.3864ZM166.66 37.5682C166.45 37.5682 166.269 37.4929 166.119 37.3423C165.968 37.1918 165.893 37.0114 165.893 36.8011C165.893 36.5909 165.968 36.4105 166.119 36.2599C166.269 36.1094 166.45 36.0341 166.66 36.0341C166.87 36.0341 167.051 36.1094 167.201 36.2599C167.352 36.4105 167.427 36.5909 167.427 36.8011C167.427 36.9403 167.392 37.0682 167.32 37.1847C167.252 37.3011 167.16 37.3949 167.043 37.4659C166.93 37.5341 166.802 37.5682 166.66 37.5682ZM170.085 37.5682C169.874 37.5682 169.694 37.4929 169.543 37.3423C169.393 37.1918 169.318 37.0114 169.318 36.8011C169.318 36.5909 169.393 36.4105 169.543 36.2599C169.694 36.1094 169.874 36.0341 170.085 36.0341C170.295 36.0341 170.475 36.1094 170.626 36.2599C170.776 36.4105 170.852 36.5909 170.852 36.8011C170.852 36.9403 170.816 37.0682 170.745 37.1847C170.677 37.3011 170.585 37.3949 170.468 37.4659C170.355 37.5341 170.227 37.5682 170.085 37.5682ZM173.509 37.5682C173.299 37.5682 173.119 37.4929 172.968 37.3423C172.818 37.1918 172.742 37.0114 172.742 36.8011C172.742 36.5909 172.818 36.4105 172.968 36.2599C173.119 36.1094 173.299 36.0341 173.509 36.0341C173.72 36.0341 173.9 36.1094 174.051 36.2599C174.201 36.4105 174.276 36.5909 174.276 36.8011C174.276 36.9403 174.241 37.0682 174.17 37.1847C174.102 37.3011 174.009 37.3949 173.893 37.4659C173.779 37.5341 173.651 37.5682 173.509 37.5682Z" fill="#9497A5"/>
<defs>
<linearGradient id="paint0_linear_2334_1883" x1="16.1836" y1="22.2891" x2="19.3918" y2="22.465" gradientUnits="userSpaceOnUse">
<stop stop-color="#D08B20"/>
<stop offset="1" stop-color="#FFC872"/>
</linearGradient>
<linearGradient id="paint1_linear_2334_1883" x1="-13" y1="25" x2="41.7532" y2="28.0021" gradientUnits="userSpaceOnUse">
<stop stop-color="#D08B20"/>
<stop offset="1" stop-color="#FFC872"/>
</linearGradient>
<linearGradient id="paint2_linear_2334_1883" x1="42.9216" y1="19.7519" x2="61.2517" y2="-35.1547" gradientUnits="userSpaceOnUse">
<stop stop-color="#D08B20"/>
<stop offset="1" stop-color="#FFC872"/>
</linearGradient>
<clipPath id="clip0_2334_1883">
<rect width="36" height="36" fill="white" transform="translate(0 3)"/>
</clipPath>
</defs>
</svg>
