<svg width="20" height="20" viewBox="0 0 20 20" fill="none" xmlns="http://www.w3.org/2000/svg">
<g clip-path="url(#clip0_2335_1804)">
<path d="M3.54833 7.44586L3.52333 7.46836V7.72252L3.54833 7.74586H3.71C3.77 7.74586 3.81583 7.79169 3.81583 7.85086V12.4367C3.81583 12.495 3.86167 12.5417 3.9175 12.5417H5.08417C5.09799 12.5418 5.11169 12.5392 5.12448 12.5339C5.13727 12.5287 5.14889 12.521 5.15866 12.5112C5.16843 12.5014 5.17616 12.4898 5.1814 12.477C5.18664 12.4642 5.18928 12.4505 5.18917 12.4367V10.5084C5.18917 10.4617 5.21417 10.4384 5.24583 10.4384C5.29083 10.4384 5.3125 10.4734 5.32583 10.4967L6.70333 12.4259C6.74917 12.495 6.83 12.5417 6.88583 12.5417H8.27333C8.33 12.5417 8.40667 12.4667 8.34333 12.3792L6.5875 9.89586L6.56583 9.83752L6.5875 9.76919L8.05583 7.59586C8.09417 7.53252 8.045 7.44586 7.975 7.44586H6.6575C6.5975 7.44586 6.52083 7.49169 6.47167 7.56169L5.32583 9.17836C5.29083 9.23419 5.2525 9.23669 5.24833 9.23669H5.24583C5.23818 9.23693 5.23056 9.23558 5.22347 9.23272C5.21637 9.22985 5.20995 9.22553 5.20461 9.22004C5.19928 9.21455 5.19515 9.20801 5.19249 9.20083C5.18983 9.19365 5.1887 9.186 5.18917 9.17836V7.55002C5.18917 7.53624 5.18642 7.52259 5.18107 7.50989C5.17572 7.49719 5.16788 7.48569 5.15802 7.47606C5.14816 7.46643 5.13647 7.45887 5.12365 7.45383C5.11082 7.44878 5.09711 7.44636 5.08333 7.44669L3.54833 7.44586ZM12.925 7.44586L12.9033 7.46836V7.72252L12.925 7.74586H13.065C13.1217 7.74586 13.1708 7.77919 13.1708 7.83752L13.1567 7.89669L11.6425 12.4142V12.4225C11.6394 12.4357 11.6391 12.4494 11.6416 12.4627C11.644 12.4761 11.6491 12.4888 11.6567 12.5C11.66 12.5042 11.66 12.5084 11.6633 12.5109C11.682 12.5295 11.707 12.5405 11.7333 12.5417H12.9142C12.9708 12.5417 13.0308 12.495 13.055 12.4367L14.0592 9.27169C14.0592 9.27169 14.0733 9.22419 14.1125 9.22419C14.1508 9.22419 14.1608 9.27169 14.1608 9.27169L15.18 12.4367C15.2008 12.495 15.2608 12.5417 15.32 12.5417H16.4975C16.5136 12.5422 16.5295 12.5385 16.5437 12.5309C16.5579 12.5233 16.5699 12.512 16.5783 12.4984C16.5913 12.4757 16.5963 12.4492 16.5925 12.4234C16.5925 12.4209 16.5883 12.4175 16.5883 12.415L14.9483 7.51502C14.9233 7.45669 14.8675 7.44586 14.8075 7.44586H12.925ZM9.025 7.44586L9.015 7.46836V7.72252L9.025 7.74586H9.18667C9.24583 7.74586 9.2925 7.79169 9.2925 7.85086V12.4367C9.2925 12.495 9.33833 12.5417 9.3975 12.5417H10.5958C10.6097 12.5418 10.6234 12.5392 10.6361 12.5339C10.6489 12.5287 10.6606 12.521 10.6703 12.5112C10.6801 12.5014 10.6878 12.4898 10.6931 12.477C10.6983 12.4642 10.7009 12.4505 10.7008 12.4367V7.55002C10.7008 7.53631 10.6981 7.52274 10.6928 7.51009C10.6875 7.49744 10.6798 7.48598 10.67 7.47636C10.6602 7.46674 10.6486 7.45917 10.6359 7.45407C10.6232 7.44898 10.6095 7.44647 10.5958 7.44669L9.025 7.44586ZM18.8267 10C18.8267 12.4184 14.8675 14.3867 9.99833 14.3867C5.12917 14.3867 1.17 12.4184 1.17 10C1.17 7.58252 5.12917 5.61419 9.99833 5.61419C14.8667 5.61419 18.8267 7.58336 18.8267 10ZM17.0633 6.44586C15.1733 5.50252 12.665 4.98169 9.99833 4.98169C7.33167 4.98169 4.82333 5.50252 2.93667 6.44586C1.04 7.39336 0 8.65419 0 10C0 11.3459 1.04 12.6084 2.93667 13.5559C4.82333 14.4992 7.33167 15.0184 9.99833 15.0184C12.665 15.0184 15.1733 14.4992 17.0633 13.5559C18.9567 12.6075 20 11.3459 20 10C20 8.65419 18.9567 7.39336 17.0633 6.44586Z" fill="#FDAF36"/>
</g>
<defs>
<clipPath id="clip0_2335_1804">
<rect width="20" height="20" fill="white"/>
</clipPath>
</defs>
</svg>
